<svg width="81" height="81" fill="none" xmlns="http://www.w3.org/2000/svg"><path d="M6.25 63V21A3.75 3.75 0 0110 17.25h60A3.75 3.75 0 0173.75 21v42A3.75 3.75 0 0170 66.75H10A3.75 3.75 0 016.25 63zM30.5 24h7M11 24h7m-7 11h7m-7 6h7m-7 6h7m-7 6h4m26-29h7m4 0h7" stroke="#F14D34" stroke-width="2.5"/><path d="M36.852 48.168c1.708 0 3.122-.616 4.046-1.75l-1.456-1.344c-.658.77-1.484 1.162-2.464 1.162-1.834 0-3.136-1.288-3.136-3.136s1.302-3.136 3.136-3.136c.98 0 1.806.392 2.464 1.148l1.456-1.344c-.924-1.12-2.338-1.736-4.032-1.736-3.052 0-5.32 2.114-5.32 5.068 0 2.954 2.268 5.068 5.306 5.068zM51.11 48l-2.198-3.15c1.274-.546 2.016-1.624 2.016-3.094 0-2.198-1.638-3.556-4.256-3.556H42.43V48h2.268v-2.73h2.086l1.89 2.73h2.436zm-2.478-6.244c0 1.064-.7 1.708-2.086 1.708h-1.848v-3.416h1.848c1.386 0 2.086.63 2.086 1.708zM63.77 48l-.029-9.8H61.88l-3.612 6.09L54.6 38.2h-1.876V48h2.129v-5.754l2.87 4.718h1.022l2.884-4.844.014 5.88h2.127z" fill="#050C33"/></svg>