<svg width="81" height="81" fill="none" xmlns="http://www.w3.org/2000/svg"><path d="M7 16.276h47V13a5 5 0 00-5-5H11a5 5 0 00-5 5v33.035a5 5 0 005 5h38a5 5 0 005-5V39.5" stroke="#F14D34" stroke-width="2.5"/><path d="M26 51.517v16.517a5 5 0 005 5h38a5 5 0 005-5V38.276m0 0V35a5 5 0 00-5-5h-7m12 8.276H62" stroke="#F14D34" stroke-width="2.5"/><path d="M55 20l-11.5 3.53M55 35l-10.947-2.52a4.998 4.998 0 00-1.121-.127h-3.52A4.412 4.412 0 0135 27.94v0a4.412 4.412 0 014.412-4.412H43.5m0 0v4.412" stroke="#050C33" stroke-width="2.5"/><rect x="54" y="16" width="7" height="23" rx="3.5" stroke="#050C33" stroke-width="2.5"/><path d="M44 32v8a2 2 0 01-2 2v0a2 2 0 01-2-2v-8" stroke="#050C33" stroke-width="2.5"/><path d="M10.457 12.552h2.057m2.057 0h2.057m2.058 0h2.057M13 36h15m-15 4h8" stroke="#F14D34" stroke-width="2.5"/><rect x="14.25" y="23.25" width="12.5" height="8.5" rx="3.75" stroke="#F14D34" stroke-width="2.5"/><circle cx="59.9" cy="58.9" r="5.75" transform="rotate(-45 59.9 58.9)" stroke="#F14D34" stroke-width="2.5"/><path d="M64.143 63.142l3.889 3.89" stroke="#F14D34" stroke-width="2.5"/></svg>