<svg width="81" height="81" fill="none" xmlns="http://www.w3.org/2000/svg"><path d="M42 34H15v17h27" stroke="#050C33" stroke-width="2" stroke-dasharray="3 4"/><path d="M64 33V21a5 5 0 00-5-5H11a5 5 0 00-5 5v42a5 5 0 005 5h48a5 5 0 005-5V52" stroke="#F14D34" stroke-width="2.5"/><path d="M41.25 48V37A3.75 3.75 0 0145 33.25h31A3.75 3.75 0 0179.75 37v11A3.75 3.75 0 0176 51.75H45A3.75 3.75 0 0141.25 48zM48 40h25M12 27h25M12 58h16m-16 4h20" stroke="#F14D34" stroke-width="2.5"/><path d="M24 42h8m-4-4v8" stroke="#050C33" stroke-width="2.5"/><path d="M6 21h58M48 45h16" stroke="#F14D34" stroke-width="2.5"/></svg>