<svg width="81" height="81" fill="none" xmlns="http://www.w3.org/2000/svg"><path d="M75 51v12a5 5 0 01-5 5H10a5 5 0 01-5-5V51" stroke="#F14D34" stroke-width="2.5"/><path d="M10.25 61v-7c0-.967.784-1.75 1.75-1.75h56c.966 0 1.75.783 1.75 1.75v7A1.75 1.75 0 0168 62.75H12A1.75 1.75 0 0110.25 61zm0-16v-7c0-.967.784-1.75 1.75-1.75h56c.966 0 1.75.783 1.75 1.75v7A1.75 1.75 0 0168 46.75H12A1.75 1.75 0 0110.25 45z" stroke="#F14D34" stroke-width="2.5"/><path d="M29 12.05L33 8m0 0l4 4.05M33 8v22" stroke="#050C33" stroke-width="2.5"/><path d="M22 26.5h-9.5M22 22H5m53-11h9.5M58 22h5m-5-6.5h17" stroke="#F14D34" stroke-width="2.5"/><path d="M43 25.95L47 30m0 0l4-4.05M47 30V7" stroke="#050C33" stroke-width="2.5"/></svg>