<svg width="81" height="81" fill="none" xmlns="http://www.w3.org/2000/svg"><g clip-path="url(#clip0)" stroke-width="2.5"><path d="M5 24v39a5 5 0 005 5h42M5 24v-8a5 5 0 015-5h60a5 5 0 015 5v33.5M5 24h69.5" stroke="#F14D34"/><path d="M78.715 68.066l-4.992-4.992c1.142-3.311.353-7.179-2.344-9.876-2.772-2.772-6.782-3.528-10.152-2.244l5.23 5.231-.992 4.28-4.28.993-5.23-5.231c-1.285 3.37-.53 7.38 2.243 10.152 2.697 2.697 6.565 3.486 9.876 2.344l4.992 4.992" stroke="#050C33"/><path d="M11 18h3m3 0h3m3 0h3M16 32v3m0 23.5V44.25" stroke="#F14D34"/><circle cx="16" cy="38" r="3" stroke="#F14D34"/><path d="M26 32v16m0 10.5V56" stroke="#F14D34"/><circle cx="26" cy="50" r="3" stroke="#F14D34"/><path d="M36 32v7m0 19.5V48" stroke="#F14D34"/><circle cx="36" cy="42" r="3" stroke="#F14D34"/><rect x="48" y="32" width="19" height="7" rx="1" stroke="#F14D34"/><path d="M48 44h19m-19 4h9" stroke="#F14D34"/></g><defs><clipPath id="clip0"><path fill="#fff" d="M0 0h81v81H0z"/></clipPath></defs></svg>