<svg width="81" height="81" fill="none" xmlns="http://www.w3.org/2000/svg"><path d="M33.861 67H10a4 4 0 01-4-4v-4.5M70.222 67v0A3.778 3.778 0 0074 63.222V58.5m-68 0V21a4 4 0 014-4h3M6 58.5h21.5m46.5 0V21a4 4 0 00-4-4h-2m6 41.5H61.5" stroke="#F14D34" stroke-width="2.5"/><path d="M54.805 63.312l10.142 10.142a2.656 2.656 0 003.756 0v0a2.656 2.656 0 000-3.756L58.56 59.556" stroke="#050C33" stroke-width="2.5"/><path d="M32 67.5V76h16v-5m9 5H23" stroke="#F14D34" stroke-width="2.5"/><circle cx="46.542" cy="50.542" r="16.811" transform="rotate(-45 46.542 50.542)" stroke="#F14D34" stroke-width="2.5"/><circle cx="46.542" cy="50.542" r="16.811" transform="rotate(-45 46.542 50.542)" stroke="#050C33" stroke-width="2.5"/><path d="M63 34.5V10a4 4 0 00-4-4H22a4 4 0 00-4 4v41m10-30h24.5M28 15h24.5M28 27h24.5" stroke="#F14D34" stroke-width="2.5"/><path d="M39 53h11m-11-6h16" stroke="#050C33" stroke-width="2.5"/></svg>