<svg xmlns="http://www.w3.org/2000/svg" width="81" height="81" fill="none"><path d="M36.597 67H10a5 5 0 01-5-5v-3.5M71.111 67v0A3.889 3.889 0 0075 63.111V58.5m-70 0V22a5 5 0 015-5h60a5 5 0 015 5v36.5m-70 0h31.597M75 58.5h-3.889" stroke="#F14D34" stroke-width="2.5"/><path d="M41.757 25.102h25m-25 4.5h25m-25 4h25" stroke="#f14d34" stroke-width="2.5"/><path d="M11 44h21m-21 8h21m-21-4h14m7 19v9m5 0H23" stroke="#F14D34" stroke-width="2.5"/><rect x="37.551" y="38.675" width="32.199" height="36.075" rx="3.75" stroke="#f14d34" stroke-width="2.5"/><path d="M11.041 25.483h25m-25 4.5h25m-25 4h25m-25 4h10m20.701 6.547h25m-25 4.5h19m-19 4h15M41.5 59.577h19m-19 4.5h15" stroke="#f14d34" stroke-width="2.5"/><rect x="60.243" y="51.735" width="18.001" height="27.383" rx="3.75" stroke="#050c33" stroke-width="2.5" fill="#fff"/><path d="M64.45 57.26h10" stroke="#050c33" stroke-width="2.5"/><path d="M41.5 68.077h11" stroke="#f14d34" stroke-width="2.5"/><path d="M64.41 61.585h10m-10.121 4.368h10" stroke="#050c33" stroke-width="2.5"/></svg>