<svg width="987" height="943" viewBox="0 0 835 843" fill="none" xmlns="http://www.w3.org/2000/svg"><g opacity=".2" clip-path="url(#clip0_94:261)"><mask id="a" style="mask-type:alpha" maskUnits="userSpaceOnUse" x="0" y="-1" width="1408" height="844"><path d="M563.032 230.781h191.196v191.051H563.032V230.781z" fill="#F9E050"/><path d="M281.466 703.18h191.196v139.724H281.466V703.18z" fill="#F4F464"/><path d="M422.248 562.507h191.196v191.05H422.248v-191.05zM0 562.507h140.781v140.674H0V562.507zm281.467-140.484h140.781v140.674H281.467V422.023z" fill="#F4F464"/><path d="M563.031 90.486h191.196v191.05H563.031V90.486z" fill="#F9B038"/><path d="M512.707 0h241.421v140.674H512.707V-.001z" fill="#F6842D"/><path d="M140.783 0h140.781v140.674H140.783V0z" fill="#F9E050"/><path d="M563.031 652.803h191.196v190.101H563.031V652.803z" fill="#F6842D"/><path d="M281.465 140.768h140.781v140.674H281.465V140.768z" fill="#F4F464"/><path d="M702.953 512.129h191.196v191.05H702.953v-191.05z" fill="#F4AC2B"/><path d="M702.953 371.742h191.196v191.051H702.953V371.742z" fill="#F6842D"/><path d="M702.953 230.781h191.196v191.051H702.953V230.781z" fill="#F4AC2B"/><path d="M702.953 90.487h191.196v191.05H702.953V90.487z" fill="#F6842D"/><path d="M703.904 842.904V703.181h139.829V140.674H702.952V0H1080.3c56.7 0 105.78 6.463 147.06 19.485 41.28 12.832 75.15 35.454 101.78 67.77 26.64 32.318 46.61 76.041 59.55 131.17 12.94 54.939 19.31 124.801 19.31 209.776 0 85.735-5.99 155.312-18.07 208.54-12.18 54.178-31.2 96.286-57.08 126.226a189.082 189.082 0 01-99.59 62.923c-40.43 11.406-89.42 17.11-146.77 17.11H843.638l-139.734-.096zm286.603-115.295h91.033c31.39 0 58.59-3.612 81.23-10.836a93.195 93.195 0 0055.84-43.723c14.65-21.862 25.11-52.563 31.58-92.199 7.33-39.636 10.94-92.198 10.94-157.783 0-65.394-3.8-118.337-11.03-158.734-6.38-39.636-16.84-70.717-31.39-93.339a110.347 110.347 0 00-57.08-44.673c-22.83-7.319-49.46-10.931-80.19-10.931h-90.933v612.218z" fill="#F14D34"/><path d="M563.03 562.505h140.781v140.674H563.03V562.505z" fill="#F9E050"/><path d="M422.248 0h140.781v140.674H422.248V0z" fill="#F9B038"/><path d="M422.248 703.18h140.781v139.724H422.248V703.18z" fill="#F9E050"/></mask><g mask="url(#a)"><g filter="url(#filter0_d_94:261)"><path d="M563.032 230.781h191.196v191.051H563.032V230.781z" fill="#F9E050"/><path d="M281.466 703.18h191.196v139.724H281.466V703.18z" fill="#F4F464"/><path d="M422.248 562.507h191.196v191.05H422.248v-191.05zM0 562.507h140.781v140.674H0V562.507zm281.467-140.484h140.781v140.674H281.467V422.023z" fill="#F4F464"/><path d="M563.031 90.486h191.196v191.05H563.031V90.486z" fill="#F9B038"/><path d="M512.707 0h241.421v140.674H512.707V-.001z" fill="#F6842D"/><path d="M140.783 0h140.781v140.674H140.783V0z" fill="#F9E050"/><path d="M563.031 652.803h191.196v190.101H563.031V652.803z" fill="#F6842D"/><path d="M281.465 140.768h140.781v140.674H281.465V140.768z" fill="#F4F464"/><path d="M702.953 512.129h191.196v191.05H702.953v-191.05z" fill="#F4AC2B"/><path d="M702.953 371.742h191.196v191.051H702.953V371.742z" fill="#F6842D"/><path d="M702.953 230.781h191.196v191.051H702.953V230.781z" fill="#F4AC2B"/><path d="M702.953 90.487h191.196v191.05H702.953V90.487z" fill="#F6842D"/><path d="M703.904 842.904V703.181h139.829V140.674H702.952V0H1080.3c56.7 0 105.78 6.463 147.06 19.485 41.28 12.832 75.15 35.454 101.78 67.77 26.64 32.318 46.61 76.041 59.55 131.17 12.94 54.939 19.31 124.801 19.31 209.776 0 85.735-5.99 155.312-18.07 208.54-12.18 54.178-31.2 96.286-57.08 126.226a189.082 189.082 0 01-99.59 62.923c-40.43 11.406-89.42 17.11-146.77 17.11H843.638l-139.734-.096zm286.603-115.295h91.033c31.39 0 58.59-3.612 81.23-10.836a93.195 93.195 0 0055.84-43.723c14.65-21.862 25.11-52.563 31.58-92.199 7.33-39.636 10.94-92.198 10.94-157.783 0-65.394-3.8-118.337-11.03-158.734-6.38-39.636-16.84-70.717-31.39-93.339a110.347 110.347 0 00-57.08-44.673c-22.83-7.319-49.46-10.931-80.19-10.931h-90.933v612.218z" fill="#F14D34"/><path d="M563.03 562.505h140.781v140.674H563.03V562.505z" fill="#F9E050"/><path d="M422.248 0h140.781v140.674H422.248V0z" fill="#F9B038"/><path d="M422.248 703.18h140.781v139.724H422.248V703.18z" fill="#F9E050"/></g><path transform="matrix(1 0 0 -1 0 843)" fill="url(#paint0_linear_94:261)" d="M0 0h318.278v190.967H0z"/></g></g><defs><linearGradient id="paint0_linear_94:261" x1="135.153" y1="-91.793" x2="208.957" y2="137.459" gradientUnits="userSpaceOnUse"><stop stop-color="#fff"/><stop offset="1" stop-color="#fff" stop-opacity="0"/></linearGradient><clipPath id="clip0_94:261"><path fill="#fff" transform="matrix(1 0 0 -1 0 843)" d="M0 0h1408v843H0z"/></clipPath><filter id="filter0_d_94:261" x="-22.141" y="0" width="1452.28" height="922.339" filterUnits="userSpaceOnUse" color-interpolation-filters="sRGB"><feFlood flood-opacity="0" result="BackgroundImageFix"/><feColorMatrix in="SourceAlpha" values="0 0 0 0 0 0 0 0 0 0 0 0 0 0 0 0 0 0 127 0" result="hardAlpha"/><feOffset dy="57.198"/><feGaussianBlur stdDeviation="11.07"/><feColorMatrix values="0 0 0 0 0 0 0 0 0 0.0495833 0 0 0 0 0.145833 0 0 0 0.25 0"/><feBlend in2="BackgroundImageFix" result="effect1_dropShadow_94:261"/><feBlend in="SourceGraphic" in2="effect1_dropShadow_94:261" result="shape"/></filter></defs></svg>