<svg width="467" height="213" fill="none" xmlns="http://www.w3.org/2000/svg"><g filter="url(#filter0_dd_94:704)"><mask id="a" style="mask-type:alpha" maskUnits="userSpaceOnUse" x="11" y="18" width="481" height="348"><path d="M226.876 259.557l60.972-14.521-14.521-60.972-60.973 14.521 14.522 60.972z" fill="#F9E050"/><path d="M101.179 130.181l60.972-14.522-10.62-44.591-60.972 14.52 10.62 44.593z" fill="#F4F464"/><path d="M156.767 164.382l60.972-14.521-14.521-60.972-60.972 14.521 14.521 60.972zm-134.655 32.07l44.895-10.692-10.692-44.895-44.895 10.692 10.692 44.895zm100.438 23.457l44.895-10.692-10.693-44.895-44.895 10.692 10.693 44.895z" fill="#F4F464"/><path d="M194.8 124.874l60.972-14.521-14.449-60.67-60.972 14.522 14.449 60.669z" fill="#F6842D"/><path d="M250.112 159.143l60.973-14.521-14.521-60.972-60.973 14.52 14.521 60.973z" fill="#F4AC2B"/><path d="M260.782 203.946l60.973-14.521-14.521-60.973-60.973 14.522 14.521 60.972z" fill="#F6842D"/><path d="M271.497 248.93l60.972-14.521-14.521-60.972-60.972 14.521 14.521 60.972z" fill="#F4AC2B"/><path d="M225.275 53.507l10.62 44.592 44.591-10.62 42.755 179.519-44.895 10.692 10.692 44.895 120.337-28.659c18.079-4.306 33.24-10.097 45.416-17.388 12.19-7.23 21.269-17.022 27.307-29.358 6.037-12.337 9.084-27.808 9.019-46.385-.05-18.515-3.328-41.295-9.786-68.414-6.517-27.362-13.716-49.112-21.614-65.181-8.001-16.366-17.268-28.36-27.795-35.95a61.993 61.993 0 00-36.543-12.517c-13.759-.57-29.815 1.33-48.106 5.687l-77.444 18.444-44.554 10.643zm100.161 15.028l29.03-6.913c10.01-2.385 18.96-3.298 26.729-2.712a30.561 30.561 0 0121.13 9.713c6.333 5.864 12.003 14.868 17.078 27.026 5.349 12.093 10.497 28.594 15.481 49.524 4.971 20.87 7.782 38.056 8.547 51.497.98 13.133.005 23.848-2.916 32.172a36.17 36.17 0 01-14.806 18.592c-6.724 4.07-14.943 7.246-24.741 9.579l-29 6.907-46.532-195.385z" fill="#F14D34"/><path d="M201.662 153.69l44.895-10.692-10.692-44.895-44.895 10.692 10.692 44.895zm-55.587-34.201l44.895-10.692-10.62-44.592-44.895 10.692 10.62 44.592z" fill="#F9E050"/></mask><g mask="url(#a)"><g filter="url(#filter1_d_94:704)"><path d="M226.876 259.557l60.972-14.521-14.521-60.972-60.973 14.521 14.522 60.972z" fill="#F9E050"/><path d="M101.179 130.181l60.972-14.522-10.62-44.591-60.972 14.52 10.62 44.593z" fill="#F4F464"/><path d="M156.767 164.382l60.972-14.521-14.521-60.972-60.972 14.521 14.521 60.972zm-134.655 32.07l44.895-10.692-10.692-44.895-44.895 10.692 10.692 44.895zm100.438 23.457l44.895-10.692-10.693-44.895-44.895 10.692 10.693 44.895z" fill="#F4F464"/><path d="M194.8 124.874l60.972-14.521-14.449-60.67-60.972 14.522 14.449 60.669z" fill="#F6842D"/><path d="M250.112 159.143l60.973-14.521-14.521-60.972-60.973 14.52 14.521 60.973z" fill="#F4AC2B"/><path d="M260.782 203.946l60.973-14.521-14.521-60.973-60.973 14.522 14.521 60.972z" fill="#F6842D"/><path d="M271.497 248.93l60.972-14.521-14.521-60.972-60.972 14.521 14.521 60.972z" fill="#F4AC2B"/><path d="M225.275 53.507l10.62 44.592 44.591-10.62 42.755 179.519-44.895 10.692 10.692 44.895 120.337-28.659c18.079-4.306 33.24-10.097 45.416-17.388 12.19-7.23 21.269-17.022 27.307-29.358 6.037-12.337 9.084-27.808 9.019-46.385-.05-18.515-3.328-41.295-9.786-68.414-6.517-27.362-13.716-49.112-21.614-65.181-8.001-16.366-17.268-28.36-27.795-35.95a61.993 61.993 0 00-36.543-12.517c-13.759-.57-29.815 1.33-48.106 5.687l-77.444 18.444-44.554 10.643zm100.161 15.028l29.03-6.913c10.01-2.385 18.96-3.298 26.729-2.712a30.561 30.561 0 0121.13 9.713c6.333 5.864 12.003 14.868 17.078 27.026 5.349 12.093 10.497 28.594 15.481 49.524 4.971 20.87 7.782 38.056 8.547 51.497.98 13.133.005 23.848-2.916 32.172a36.17 36.17 0 01-14.806 18.592c-6.724 4.07-14.943 7.246-24.741 9.579l-29 6.907-46.532-195.385z" fill="#F14D34"/><path d="M201.662 153.69l44.895-10.692-10.692-44.895-44.895 10.692 10.692 44.895zm-55.587-34.201l44.895-10.692-10.62-44.592-44.895 10.692 10.62 44.592z" fill="#F9E050"/></g><path transform="rotate(-13.396 .793 106.937)" fill="url(#paint0_linear_94:704)" d="M.793 106.937h129.24v77.544H.793z"/></g></g><defs><filter id="filter0_dd_94:704" x="-8.198" y="0" width="531.066" height="408.189" filterUnits="userSpaceOnUse" color-interpolation-filters="sRGB"><feFlood flood-opacity="0" result="BackgroundImageFix"/><feColorMatrix in="SourceAlpha" values="0 0 0 0 0 0 0 0 0 0 0 0 0 0 0 0 0 0 127 0" result="hardAlpha"/><feOffset dy="23.226"/><feGaussianBlur stdDeviation="4.495"/><feColorMatrix values="0 0 0 0 0 0 0 0 0 0.0495833 0 0 0 0 0.145833 0 0 0 0.25 0"/><feBlend in2="BackgroundImageFix" result="effect1_dropShadow_94:704"/><feColorMatrix in="SourceAlpha" values="0 0 0 0 0 0 0 0 0 0 0 0 0 0 0 0 0 0 127 0" result="hardAlpha"/><feOffset dy="2.622"/><feColorMatrix values="0 0 0 0 0.2375 0 0 0 0 0.136562 0 0 0 0 0.136562 0 0 0 1 0"/><feBlend in2="effect1_dropShadow_94:704" result="effect2_dropShadow_94:704"/><feBlend in="SourceGraphic" in2="effect2_dropShadow_94:704" result="shape"/></filter><filter id="filter1_d_94:704" x="2.429" y="18.634" width="497.68" height="378.863" filterUnits="userSpaceOnUse" color-interpolation-filters="sRGB"><feFlood flood-opacity="0" result="BackgroundImageFix"/><feColorMatrix in="SourceAlpha" values="0 0 0 0 0 0 0 0 0 0 0 0 0 0 0 0 0 0 127 0" result="hardAlpha"/><feOffset dy="23.226"/><feGaussianBlur stdDeviation="4.495"/><feColorMatrix values="0 0 0 0 0 0 0 0 0 0.0495833 0 0 0 0 0.145833 0 0 0 0.25 0"/><feBlend in2="BackgroundImageFix" result="effect1_dropShadow_94:704"/><feBlend in="SourceGraphic" in2="effect1_dropShadow_94:704" result="shape"/></filter><linearGradient id="paint0_linear_94:704" x1="55.673" y1="69.663" x2="85.642" y2="162.753" gradientUnits="userSpaceOnUse"><stop stop-color="#fff"/><stop offset="1" stop-color="#fff" stop-opacity="0"/></linearGradient></defs></svg>