<svg width="114" height="71" fill="none" xmlns="http://www.w3.org/2000/svg"><g opacity=".07" fill="#F6842D"><path d="M45.586 51.563h15.48v-16.09h-15.48v16.09zM22.79 11.776h15.48V.008H22.79v11.768z"/><path d="M34.188 23.624h15.48V7.534h-15.48v16.09zM0 23.624h11.399V11.776H0v11.848zm22.79 11.832h11.398V23.608H22.789v11.848zM45.586 63.38h15.48V47.287h-15.48V63.38z"/><path d="M41.512 71h19.547V59.152H41.512V71zm-30.114 0h11.399V59.152H11.398V71zm34.188-54.981h15.48V.008h-15.48v16.01zM22.79 59.144h11.398V47.296H22.789v11.848z"/><path d="M56.915 27.867h15.48v-16.09h-15.48v16.09z"/><path d="M56.915 39.69h15.48V23.6h-15.48v16.09z"/><path d="M56.915 51.563h15.48v-16.09h-15.48v16.09z"/><path d="M56.915 63.38h15.48V47.287h-15.48V63.38z"/><path d="M56.992.008v11.768h11.322v47.376H56.915V71h30.553c4.59 0 8.564-.544 11.906-1.641 3.343-1.08 6.085-2.986 8.241-5.708 2.157-2.722 3.774-6.404 4.822-11.047C113.484 47.976 114 42.093 114 34.936c0-7.221-.485-13.081-1.463-17.564-.986-4.563-2.526-8.11-4.621-10.631-2.077-2.615-4.902-4.471-8.064-5.3C96.579.481 92.612 0 87.968 0L56.992.008zm23.205 9.71h7.37c2.542 0 4.745.305 6.578.913 1.915.56 3.54 1.884 4.52 3.683 1.187 1.84 2.034 4.427 2.558 7.765.593 3.338.886 7.765.886 13.289 0 5.508-.308 9.967-.894 13.369-.516 3.338-1.363 5.956-2.541 7.861a8.997 8.997 0 01-4.621 3.763c-1.849.616-4.005.92-6.493.92h-7.363V9.72z"/><path d="M45.586 23.624h11.398V11.776H45.586v11.848zM34.188 71h11.398V59.152H34.188V71zm0-59.224h11.398V.008H34.188v11.768z"/></g></svg>