<svg width="84" height="84" fill="none" xmlns="http://www.w3.org/2000/svg"><g clip-path="url(#clip0)"><g filter="url(#filter0_d)"><path d="M52.685 52.187L32.082 3.648C58.915-6.388 90.447 4.762 100.355 31.34c9.823 26.34-1.611 57.091-27.637 68.405C46.294 111.23 15.57 98.628 4.312 72.107-1.275 58.944-1.036 44.774 3.86 32.46l48.826 19.727z" fill="#F5F5F5"/></g><path d="M6.698 28.015C10.996 18.62 18.348 10.59 28.11 5.58a.214.214 0 01.293.107l16.056 37.822L6.814 28.3a.214.214 0 01-.116-.284z" fill="#F14D34"/></g><defs><clipPath id="clip0"><path fill="#fff" transform="matrix(0 -1 -1 0 104 104)" d="M0 0h104v104H0z"/></clipPath><filter id="filter0_d" x="-.846" y=".002" width="105.692" height="105.999" filterUnits="userSpaceOnUse" color-interpolation-filters="sRGB"><feFlood flood-opacity="0" result="BackgroundImageFix"/><feColorMatrix in="SourceAlpha" values="0 0 0 0 0 0 0 0 0 0 0 0 0 0 0 0 0 0 127 0"/><feOffset dy="1"/><feGaussianBlur stdDeviation=".5"/><feColorMatrix values="0 0 0 0 0 0 0 0 0 0 0 0 0 0 0 0 0 0 0.1 0"/><feBlend in2="BackgroundImageFix" result="effect1_dropShadow"/><feBlend in="SourceGraphic" in2="effect1_dropShadow" result="shape"/></filter></defs></svg>