<svg width="84" height="84" fill="none" xmlns="http://www.w3.org/2000/svg"><g clip-path="url(#clip0)"><g filter="url(#filter0_d)"><path d="M100.438 42c-3.276 0-6.062-2.283-7.204-5.353-.372-1-.78-1.984-1.221-2.948-1.363-2.98-1.007-6.565 1.309-8.881a3.562 3.562 0 000-5.036l-9.106-9.106a3.562 3.562 0 00-5.036 0c-2.316 2.316-5.902 2.672-8.88 1.31a43.671 43.671 0 00-2.947-1.22C64.283 9.624 62 6.838 62 3.562A3.561 3.561 0 0058.438 0H45.56A3.56 3.56 0 0042 3.562c0 3.276-2.283 6.062-5.353 7.204-1.001.372-1.985.78-2.95 1.222-2.978 1.362-6.562 1.006-8.877-1.31a3.562 3.562 0 00-5.036 0l-9.106 9.106a3.562 3.562 0 000 5.036c2.316 2.316 2.672 5.902 1.308 8.88a43.665 43.665 0 00-1.22 2.947C9.624 39.717 6.838 42 3.562 42A3.561 3.561 0 000 45.562V58.44A3.56 3.56 0 003.562 62c3.276 0 6.062 2.283 7.204 5.353.372 1.001.78 1.985 1.222 2.95 1.362 2.978 1.006 6.562-1.31 8.877a3.562 3.562 0 000 5.036l9.106 9.106a3.562 3.562 0 005.036 0c2.317-2.317 5.902-2.673 8.88-1.31.965.442 1.948.85 2.949 1.221 3.07 1.143 5.353 3.93 5.353 7.205a3.558 3.558 0 003.56 3.562H58.44a3.56 3.56 0 003.56-3.562c0-3.276 2.283-6.062 5.353-7.204 1-.372 1.984-.78 2.949-1.221 2.978-1.363 6.564-1.007 8.88 1.309a3.562 3.562 0 005.036 0l9.106-9.106a3.562 3.562 0 000-5.036c-2.316-2.316-2.673-5.902-1.31-8.88.441-.965.849-1.948 1.22-2.949 1.143-3.07 3.93-5.353 7.206-5.353a3.558 3.558 0 003.56-3.56V45.56a3.56 3.56 0 00-3.562-3.56zM52 70c-9.942 0-18-8.06-18-18 0-9.942 8.058-18 18-18s18 8.058 18 18c0 9.94-8.058 18-18 18z" fill="#F5F5F5"/></g><path d="M52 26c-14.36 0-26 11.64-26 26s11.64 26 26 26 26-11.64 26-26-11.64-26-26-26zm0 44c-9.942 0-18-8.06-18-18 0-9.942 8.058-18 18-18s18 8.058 18 18c0 9.94-8.058 18-18 18z" fill="#F14D34"/></g><defs><clipPath id="clip0"><path fill="#fff" d="M0 0h104v104H0z"/></clipPath><filter id="filter0_d" x="-1" y="0" width="106" height="106" filterUnits="userSpaceOnUse" color-interpolation-filters="sRGB"><feFlood flood-opacity="0" result="BackgroundImageFix"/><feColorMatrix in="SourceAlpha" values="0 0 0 0 0 0 0 0 0 0 0 0 0 0 0 0 0 0 127 0"/><feOffset dy="1"/><feGaussianBlur stdDeviation=".5"/><feColorMatrix values="0 0 0 0 0 0 0 0 0 0 0 0 0 0 0 0 0 0 0.1 0"/><feBlend in2="BackgroundImageFix" result="effect1_dropShadow"/><feBlend in="SourceGraphic" in2="effect1_dropShadow" result="shape"/></filter></defs></svg>