<svg width="84" height="84" fill="none" xmlns="http://www.w3.org/2000/svg"><g clip-path="url(#clip0)"><path d="M11.684 25.12L36.759 0h55.586l.12 104.069h-80.69l-.091-78.949z" fill="#F5F5F5"/><g filter="url(#filter0_d)"><path d="M74.461 41.269H29.634c-.99 0-1.794-.802-1.795-1.794a1.79 1.79 0 011.79-1.795h44.828c.99 0 1.794.802 1.795 1.794a1.79 1.79 0 01-1.79 1.795z" fill="#F5F5F5"/></g><g filter="url(#filter1_d)"><path d="M74.445 26.914H56.514c-.99 0-1.794-.802-1.795-1.794a1.79 1.79 0 011.79-1.794h17.932c.99 0 1.794.802 1.795 1.794a1.79 1.79 0 01-1.791 1.794z" fill="#F5F5F5"/></g><g filter="url(#filter2_d)"><path d="M29.646 52.035h44.828c.99 0 1.794.802 1.795 1.794a1.79 1.79 0 01-1.791 1.794H29.65c-.99 0-1.794-.802-1.795-1.794a1.79 1.79 0 011.791-1.794z" fill="#F5F5F5"/></g><g filter="url(#filter3_d)"><path d="M29.663 66.389H74.49c.99 0 1.794.802 1.795 1.794a1.79 1.79 0 01-1.79 1.794H29.666c-.99 0-1.794-.802-1.795-1.794a1.79 1.79 0 011.79-1.794z" fill="#F5F5F5"/></g><path d="M36.758 0l.03 25.12H11.684L36.759 0z" fill="#F14D34"/></g><defs><filter id="filter0_d" x="26.839" y="37.68" width="50.414" height="5.589" filterUnits="userSpaceOnUse" color-interpolation-filters="sRGB"><feFlood flood-opacity="0" result="BackgroundImageFix"/><feColorMatrix in="SourceAlpha" values="0 0 0 0 0 0 0 0 0 0 0 0 0 0 0 0 0 0 127 0"/><feOffset dy="1"/><feGaussianBlur stdDeviation=".5"/><feColorMatrix values="0 0 0 0 0 0 0 0 0 0 0 0 0 0 0 0 0 0 0.264 0"/><feBlend in2="BackgroundImageFix" result="effect1_dropShadow"/><feBlend in="SourceGraphic" in2="effect1_dropShadow" result="shape"/></filter><filter id="filter1_d" x="53.719" y="23.326" width="23.517" height="5.589" filterUnits="userSpaceOnUse" color-interpolation-filters="sRGB"><feFlood flood-opacity="0" result="BackgroundImageFix"/><feColorMatrix in="SourceAlpha" values="0 0 0 0 0 0 0 0 0 0 0 0 0 0 0 0 0 0 127 0"/><feOffset dy="1"/><feGaussianBlur stdDeviation=".5"/><feColorMatrix values="0 0 0 0 0 0 0 0 0 0 0 0 0 0 0 0 0 0 0.264 0"/><feBlend in2="BackgroundImageFix" result="effect1_dropShadow"/><feBlend in="SourceGraphic" in2="effect1_dropShadow" result="shape"/></filter><filter id="filter2_d" x="26.855" y="52.035" width="50.414" height="5.589" filterUnits="userSpaceOnUse" color-interpolation-filters="sRGB"><feFlood flood-opacity="0" result="BackgroundImageFix"/><feColorMatrix in="SourceAlpha" values="0 0 0 0 0 0 0 0 0 0 0 0 0 0 0 0 0 0 127 0"/><feOffset dy="1"/><feGaussianBlur stdDeviation=".5"/><feColorMatrix values="0 0 0 0 0 0 0 0 0 0 0 0 0 0 0 0 0 0 0.264 0"/><feBlend in2="BackgroundImageFix" result="effect1_dropShadow"/><feBlend in="SourceGraphic" in2="effect1_dropShadow" result="shape"/></filter><filter id="filter3_d" x="26.872" y="66.389" width="50.414" height="5.589" filterUnits="userSpaceOnUse" color-interpolation-filters="sRGB"><feFlood flood-opacity="0" result="BackgroundImageFix"/><feColorMatrix in="SourceAlpha" values="0 0 0 0 0 0 0 0 0 0 0 0 0 0 0 0 0 0 127 0"/><feOffset dy="1"/><feGaussianBlur stdDeviation=".5"/><feColorMatrix values="0 0 0 0 0 0 0 0 0 0 0 0 0 0 0 0 0 0 0.264 0"/><feBlend in2="BackgroundImageFix" result="effect1_dropShadow"/><feBlend in="SourceGraphic" in2="effect1_dropShadow" result="shape"/></filter><clipPath id="clip0"><path fill="#fff" transform="matrix(-1 0 .00115 1 104 0)" d="M0 0h104v104.069H0z"/></clipPath></defs></svg>