<svg width="84" height="84" fill="none" xmlns="http://www.w3.org/2000/svg"><g clip-path="url(#clip0)"><g filter="url(#filter0_d)"><path d="M98.51 24.945l-6.639 66.668H12.13L6.781 26.234 52 51.553l46.51-26.608z" fill="#F2F2F2"/></g><g filter="url(#filter1_d)"><path d="M96.258 12.387L52 53.962 7.742 12.387h88.516z" fill="#F5F5F5"/></g><g filter="url(#filter2_d)"><path d="M12.129 25.518v66.095H4.903A4.904 4.904 0 010 86.71V16.677l7.922.215 4.207 8.626z" fill="#F2F2F2"/></g><path d="M104 12.09v5.453l-12.129 8.842-39.87 29.06-39.872-29.06L0 17.543v-.252a4.904 4.904 0 014.903-4.904h2.84L52 44.645l44.258-32.258h2.836c2.71 0 4.906-3.004 4.906-.296z" fill="#F14D34"/></g><defs><filter id="filter0_d" x="5.781" y="24.945" width="93.73" height="68.667" filterUnits="userSpaceOnUse" color-interpolation-filters="sRGB"><feFlood flood-opacity="0" result="BackgroundImageFix"/><feColorMatrix in="SourceAlpha" values="0 0 0 0 0 0 0 0 0 0 0 0 0 0 0 0 0 0 127 0"/><feOffset dy="1"/><feGaussianBlur stdDeviation=".5"/><feColorMatrix values="0 0 0 0 0 0 0 0 0 0 0 0 0 0 0 0 0 0 0.264 0"/><feBlend in2="BackgroundImageFix" result="effect1_dropShadow"/><feBlend in="SourceGraphic" in2="effect1_dropShadow" result="shape"/></filter><filter id="filter1_d" x="6.742" y="12.387" width="90.516" height="43.575" filterUnits="userSpaceOnUse" color-interpolation-filters="sRGB"><feFlood flood-opacity="0" result="BackgroundImageFix"/><feColorMatrix in="SourceAlpha" values="0 0 0 0 0 0 0 0 0 0 0 0 0 0 0 0 0 0 127 0"/><feOffset dy="1"/><feGaussianBlur stdDeviation=".5"/><feColorMatrix values="0 0 0 0 0 0 0 0 0 0 0 0 0 0 0 0 0 0 0.264 0"/><feBlend in2="BackgroundImageFix" result="effect1_dropShadow"/><feBlend in="SourceGraphic" in2="effect1_dropShadow" result="shape"/></filter><filter id="filter2_d" x="-1" y="16.677" width="14.129" height="76.936" filterUnits="userSpaceOnUse" color-interpolation-filters="sRGB"><feFlood flood-opacity="0" result="BackgroundImageFix"/><feColorMatrix in="SourceAlpha" values="0 0 0 0 0 0 0 0 0 0 0 0 0 0 0 0 0 0 127 0"/><feOffset dy="1"/><feGaussianBlur stdDeviation=".5"/><feColorMatrix values="0 0 0 0 0 0 0 0 0 0 0 0 0 0 0 0 0 0 0.264 0"/><feBlend in2="BackgroundImageFix" result="effect1_dropShadow"/><feBlend in="SourceGraphic" in2="effect1_dropShadow" result="shape"/></filter><clipPath id="clip0"><path fill="#fff" d="M0 0h104v104H0z"/></clipPath></defs></svg>