<svg width="89" height="96" fill="none" xmlns="http://www.w3.org/2000/svg"><g clip-path="url(#clip0)"><path d="M114.289 104.31H6.711A6.71 6.71 0 010 97.6V23.4a6.71 6.71 0 016.711-6.711H114.29A6.71 6.71 0 01121 23.4v74.198a6.71 6.71 0 01-6.711 6.711z" fill="#F5F5F5"/><g filter="url(#filter0_d)"><path d="M121 27.12H0v16.69h121V27.12z" fill="#F5F5F5"/></g><g filter="url(#filter1_d)"><path d="M31.293 54.241H12.517a2.086 2.086 0 100 4.173h18.776a2.086 2.086 0 100-4.173z" fill="#F5F5F5"/></g><g filter="url(#filter2_d)"><path d="M60.5 56.328a2.086 2.086 0 00-2.086-2.087H39.638a2.086 2.086 0 100 4.173h18.776a2.086 2.086 0 002.086-2.086z" fill="#F5F5F5"/></g><g filter="url(#filter3_d)"><path d="M14.603 64.672h-2.086a2.086 2.086 0 100 4.173h2.086a2.086 2.086 0 100-4.172z" fill="#F5F5F5"/></g><g filter="url(#filter4_d)"><path d="M27.12 64.672h-4.172a2.086 2.086 0 100 4.173h4.173a2.086 2.086 0 100-4.172z" fill="#F5F5F5"/></g><g filter="url(#filter5_d)"><path d="M37.552 64.672h-2.087a2.086 2.086 0 100 4.173h2.087a2.086 2.086 0 100-4.172z" fill="#F5F5F5"/></g><g filter="url(#filter6_d)"><path d="M50.069 64.672h-4.173a2.086 2.086 0 100 4.173h4.173a2.086 2.086 0 100-4.172z" fill="#F5F5F5"/></g><g filter="url(#filter7_d)"><path d="M56.933 65.277a2.184 2.184 0 00-.605 1.482c0 .542.227 1.084.605 1.48a2.14 2.14 0 001.48.606 2.2 2.2 0 001.482-.605c.376-.397.605-.939.605-1.481 0-.543-.23-1.085-.605-1.482-.772-.772-2.19-.772-2.962 0z" fill="#F5F5F5"/></g><path d="M108.483 70.931h-33.38v20.862h33.38V70.931z" fill="#F14D34"/></g><defs><filter id="filter0_d" x="-1" y="27.121" width="123" height="18.69" filterUnits="userSpaceOnUse" color-interpolation-filters="sRGB"><feFlood flood-opacity="0" result="BackgroundImageFix"/><feColorMatrix in="SourceAlpha" values="0 0 0 0 0 0 0 0 0 0 0 0 0 0 0 0 0 0 127 0"/><feOffset dy="1"/><feGaussianBlur stdDeviation=".5"/><feColorMatrix values="0 0 0 0 0 0 0 0 0 0 0 0 0 0 0 0 0 0 0.264 0"/><feBlend in2="BackgroundImageFix" result="effect1_dropShadow"/><feBlend in="SourceGraphic" in2="effect1_dropShadow" result="shape"/></filter><filter id="filter1_d" x="9.431" y="54.241" width="24.948" height="6.172" filterUnits="userSpaceOnUse" color-interpolation-filters="sRGB"><feFlood flood-opacity="0" result="BackgroundImageFix"/><feColorMatrix in="SourceAlpha" values="0 0 0 0 0 0 0 0 0 0 0 0 0 0 0 0 0 0 127 0"/><feOffset dy="1"/><feGaussianBlur stdDeviation=".5"/><feColorMatrix values="0 0 0 0 0 0 0 0 0 0 0 0 0 0 0 0 0 0 0.264 0"/><feBlend in2="BackgroundImageFix" result="effect1_dropShadow"/><feBlend in="SourceGraphic" in2="effect1_dropShadow" result="shape"/></filter><filter id="filter2_d" x="36.552" y="54.242" width="24.948" height="6.172" filterUnits="userSpaceOnUse" color-interpolation-filters="sRGB"><feFlood flood-opacity="0" result="BackgroundImageFix"/><feColorMatrix in="SourceAlpha" values="0 0 0 0 0 0 0 0 0 0 0 0 0 0 0 0 0 0 127 0"/><feOffset dy="1"/><feGaussianBlur stdDeviation=".5"/><feColorMatrix values="0 0 0 0 0 0 0 0 0 0 0 0 0 0 0 0 0 0 0.264 0"/><feBlend in2="BackgroundImageFix" result="effect1_dropShadow"/><feBlend in="SourceGraphic" in2="effect1_dropShadow" result="shape"/></filter><filter id="filter3_d" x="9.431" y="64.672" width="8.259" height="6.172" filterUnits="userSpaceOnUse" color-interpolation-filters="sRGB"><feFlood flood-opacity="0" result="BackgroundImageFix"/><feColorMatrix in="SourceAlpha" values="0 0 0 0 0 0 0 0 0 0 0 0 0 0 0 0 0 0 127 0"/><feOffset dy="1"/><feGaussianBlur stdDeviation=".5"/><feColorMatrix values="0 0 0 0 0 0 0 0 0 0 0 0 0 0 0 0 0 0 0.264 0"/><feBlend in2="BackgroundImageFix" result="effect1_dropShadow"/><feBlend in="SourceGraphic" in2="effect1_dropShadow" result="shape"/></filter><filter id="filter4_d" x="19.862" y="64.672" width="10.345" height="6.172" filterUnits="userSpaceOnUse" color-interpolation-filters="sRGB"><feFlood flood-opacity="0" result="BackgroundImageFix"/><feColorMatrix in="SourceAlpha" values="0 0 0 0 0 0 0 0 0 0 0 0 0 0 0 0 0 0 127 0"/><feOffset dy="1"/><feGaussianBlur stdDeviation=".5"/><feColorMatrix values="0 0 0 0 0 0 0 0 0 0 0 0 0 0 0 0 0 0 0.264 0"/><feBlend in2="BackgroundImageFix" result="effect1_dropShadow"/><feBlend in="SourceGraphic" in2="effect1_dropShadow" result="shape"/></filter><filter id="filter5_d" x="32.379" y="64.672" width="8.259" height="6.172" filterUnits="userSpaceOnUse" color-interpolation-filters="sRGB"><feFlood flood-opacity="0" result="BackgroundImageFix"/><feColorMatrix in="SourceAlpha" values="0 0 0 0 0 0 0 0 0 0 0 0 0 0 0 0 0 0 127 0"/><feOffset dy="1"/><feGaussianBlur stdDeviation=".5"/><feColorMatrix values="0 0 0 0 0 0 0 0 0 0 0 0 0 0 0 0 0 0 0.264 0"/><feBlend in2="BackgroundImageFix" result="effect1_dropShadow"/><feBlend in="SourceGraphic" in2="effect1_dropShadow" result="shape"/></filter><filter id="filter6_d" x="42.81" y="64.672" width="10.345" height="6.172" filterUnits="userSpaceOnUse" color-interpolation-filters="sRGB"><feFlood flood-opacity="0" result="BackgroundImageFix"/><feColorMatrix in="SourceAlpha" values="0 0 0 0 0 0 0 0 0 0 0 0 0 0 0 0 0 0 127 0"/><feOffset dy="1"/><feGaussianBlur stdDeviation=".5"/><feColorMatrix values="0 0 0 0 0 0 0 0 0 0 0 0 0 0 0 0 0 0 0.264 0"/><feBlend in2="BackgroundImageFix" result="effect1_dropShadow"/><feBlend in="SourceGraphic" in2="effect1_dropShadow" result="shape"/></filter><filter id="filter7_d" x="55.328" y="64.698" width="6.172" height="6.146" filterUnits="userSpaceOnUse" color-interpolation-filters="sRGB"><feFlood flood-opacity="0" result="BackgroundImageFix"/><feColorMatrix in="SourceAlpha" values="0 0 0 0 0 0 0 0 0 0 0 0 0 0 0 0 0 0 127 0"/><feOffset dy="1"/><feGaussianBlur stdDeviation=".5"/><feColorMatrix values="0 0 0 0 0 0 0 0 0 0 0 0 0 0 0 0 0 0 0.264 0"/><feBlend in2="BackgroundImageFix" result="effect1_dropShadow"/><feBlend in="SourceGraphic" in2="effect1_dropShadow" result="shape"/></filter><clipPath id="clip0"><path fill="#fff" d="M0 0h121v121H0z"/></clipPath></defs></svg>