<svg width="81" height="81" fill="none" xmlns="http://www.w3.org/2000/svg"><path d="M3 59.82V64a5 5 0 005 5h64.889v0A4.11 4.11 0 0077 64.889V59.82m-74 0V20a5 5 0 015-5h6M3 59.82h41.5m32.5 0V20a5 5 0 00-5-5H53.5M77 59.82H61M41 53H19a5 5 0 01-5-5V12a5 5 0 015-5h29a5 5 0 015 5v29.5" stroke="#F14D34" stroke-width="2.5"/><path d="M30.25 18v-3c0-.966.784-1.75 1.75-1.75h10c.967 0 1.75.784 1.75 1.75v3A1.75 1.75 0 0142 19.75H32A1.75 1.75 0 0130.25 18zm0 26v-3c0-.967.784-1.75 1.75-1.75h10c.967 0 1.75.783 1.75 1.75v3A1.75 1.75 0 0142 45.75H32A1.75 1.75 0 0130.25 44zm0-13v-3c0-.966.784-1.75 1.75-1.75h10c.967 0 1.75.784 1.75 1.75v3A1.75 1.75 0 0142 32.75H32A1.75 1.75 0 0130.25 31zM32 69v7h16v-7m9 7H23" stroke="#F14D34" stroke-width="2.5"/><circle cx="52" cy="53" r="10.75" stroke="#050C33" stroke-width="2.5"/><path d="M48 53h8m-4-4v8" stroke="#050C33" stroke-width="2.5"/><path d="M18.5 14h7m-7 5h4m-4 8h7m-7 5h4m-4 8h7m-7 5h4" stroke="#F14D34" stroke-width="3"/></svg>