<svg width="81" height="81" fill="none" xmlns="http://www.w3.org/2000/svg"><path d="M36.597 67H10a5 5 0 01-5-5v-3.5M71.111 67v0A3.889 3.889 0 0075 63.111V58.5m-70 0V22a5 5 0 015-5h60a5 5 0 015 5v36.5m-70 0h31.597M75 58.5h-3.889" stroke="#F14D34" stroke-width="2.5"/><path d="M18 28l-4 3.5 4 3.5m10-7l4 3.5-4 3.5m-7 2l4-12" stroke="#050C33" stroke-width="2.5"/><path d="M42 28.5h25M42 33h25m-25 4h25m-25 4h10m-41 3h21m-21 8h21m-21-4h14m7 19v9m5 0H23" stroke="#F14D34" stroke-width="2.5"/><rect x="39.25" y="51.25" width="30.5" height="9.5" rx="3.75" stroke="#F14D34" stroke-width="2.5"/><path d="M46 56h17" stroke="#F14D34" stroke-width="2.5"/><rect x="39.25" y="65.25" width="30.5" height="9.5" rx="3.75" stroke="#F14D34" stroke-width="2.5"/><path d="M46 70h17" stroke="#F14D34" stroke-width="2.5"/></svg>