<svg width="290" height="230" fill="none" xmlns="http://www.w3.org/2000/svg"><g filter="url(#filter0_dd_94:668)"><mask id="a" style="mask-type:alpha" maskUnits="userSpaceOnUse" x="17" y="-17" width="256" height="186"><path d="M132.267 112.075l32.435-7.724-7.725-32.435-32.435 7.725 7.725 32.434z" fill="#F9E050"/><path d="M65.402 43.251l32.434-7.724-5.649-23.721-32.435 7.724 5.65 23.721z" fill="#F4F464"/><path d="M94.972 61.446l32.435-7.725-7.725-32.435-32.435 7.725 7.725 32.434zm-71.63 17.06l23.882-5.689-5.688-23.882-23.883 5.688 5.688 23.882zM76.77 90.982l23.882-5.688-5.688-23.882L71.082 67.1l5.688 23.882z" fill="#F4F464"/><path d="M137.94 135.893l32.434-7.724-7.724-32.435-32.435 7.724 7.725 32.435z" fill="#F9B038"/><path d="M133.061 153.288l40.955-9.754-5.688-23.882-40.955 9.754 5.688 23.882z" fill="#F6842D"/><path d="M69.967 168.315l23.883-5.688-5.688-23.882-23.883 5.688 5.688 23.882z" fill="#F9E050"/><path d="M115.204 40.428l32.434-7.724L139.952.43l-32.435 7.725 7.687 32.273z" fill="#F6842D"/><path d="M88.141 138.732l23.883-5.687-5.688-23.883-23.882 5.688 5.687 23.882z" fill="#F4F464"/><path d="M144.628 58.657l32.435-7.724-7.725-32.435-32.435 7.725 7.725 32.434z" fill="#F4AC2B"/><path d="M150.304 82.491l32.435-7.725-7.725-32.435-32.434 7.725 7.724 32.435z" fill="#F6842D"/><path d="M156.004 106.422l32.435-7.725-7.725-32.435-32.435 7.725 7.725 32.435z" fill="#F4AC2B"/><path d="M161.676 130.24l32.435-7.724-7.725-32.435-32.434 7.725 7.724 32.434z" fill="#F6842D"/><path d="M131.415 2.464l5.65 23.72 23.721-5.649 22.743 95.497-23.882 5.688 5.688 23.882 64.014-15.245c9.618-2.291 17.683-5.371 24.16-9.25 6.484-3.846 11.314-9.055 14.526-15.617 3.211-6.563 4.832-14.793 4.798-24.675-.027-9.85-1.77-21.968-5.206-36.394-3.467-14.555-7.296-26.125-11.498-34.674-4.256-8.706-9.186-15.085-14.786-19.123a32.975 32.975 0 00-19.439-6.659c-7.319-.303-15.86.708-25.591 3.025l-41.197 9.812-23.701 5.662zm53.282 7.994L200.14 6.78c5.325-1.268 10.086-1.754 14.219-1.442 4.281.173 8.32 2.03 11.24 5.167 3.369 3.12 6.385 7.909 9.085 14.376 2.845 6.433 5.584 15.211 8.235 26.345 2.644 11.102 4.139 20.244 4.546 27.395.522 6.986.004 12.685-1.551 17.114a19.235 19.235 0 01-7.876 9.89c-3.576 2.165-7.949 3.854-13.161 5.096l-15.426 3.674-24.754-103.937z" fill="#F14D34"/><path d="M118.855 55.758l23.882-5.688-5.688-23.882-23.882 5.688 5.688 23.882z" fill="#F9E050"/><path d="M117.716 156.943l23.882-5.688-5.688-23.882-23.882 5.688 5.688 23.882z" fill="#F9B038"/><path d="M89.284 37.563l23.883-5.688-5.65-23.72-23.882 5.687 5.65 23.721z" fill="#F9E050"/></mask><g mask="url(#a)"><g filter="url(#filter1_d_94:668)"><path d="M132.267 112.075l32.435-7.724-7.725-32.435-32.435 7.725 7.725 32.434z" fill="#F9E050"/><path d="M65.402 43.251l32.434-7.724-5.649-23.721-32.435 7.724 5.65 23.721z" fill="#F4F464"/><path d="M94.972 61.446l32.435-7.725-7.725-32.435-32.435 7.725 7.725 32.434zm-71.63 17.06l23.882-5.689-5.688-23.882-23.883 5.688 5.688 23.882zM76.77 90.982l23.882-5.688-5.688-23.882L71.082 67.1l5.688 23.882z" fill="#F4F464"/><path d="M137.94 135.893l32.434-7.724-7.724-32.435-32.435 7.724 7.725 32.435z" fill="#F9B038"/><path d="M133.061 153.288l40.955-9.754-5.688-23.882-40.955 9.754 5.688 23.882z" fill="#F6842D"/><path d="M69.967 168.315l23.883-5.688-5.688-23.882-23.883 5.688 5.688 23.882z" fill="#F9E050"/><path d="M115.204 40.428l32.434-7.724L139.952.43l-32.435 7.725 7.687 32.273z" fill="#F6842D"/><path d="M88.141 138.732l23.883-5.687-5.688-23.883-23.882 5.688 5.687 23.882z" fill="#F4F464"/><path d="M144.628 58.657l32.435-7.724-7.725-32.435-32.435 7.725 7.725 32.434z" fill="#F4AC2B"/><path d="M150.304 82.491l32.435-7.725-7.725-32.435-32.434 7.725 7.724 32.435z" fill="#F6842D"/><path d="M156.004 106.422l32.435-7.725-7.725-32.435-32.435 7.725 7.725 32.435z" fill="#F4AC2B"/><path d="M161.676 130.24l32.435-7.724-7.725-32.435-32.434 7.725 7.724 32.434z" fill="#F6842D"/><path d="M131.415 2.464l5.65 23.72 23.721-5.649 22.743 95.497-23.882 5.688 5.688 23.882 64.014-15.245c9.618-2.291 17.683-5.371 24.16-9.25 6.484-3.846 11.314-9.055 14.526-15.617 3.211-6.563 4.832-14.793 4.798-24.675-.027-9.85-1.77-21.968-5.206-36.394-3.467-14.555-7.296-26.125-11.498-34.674-4.256-8.706-9.186-15.085-14.786-19.123a32.975 32.975 0 00-19.439-6.659c-7.319-.303-15.86.708-25.591 3.025l-41.197 9.812-23.701 5.662zm53.282 7.994L200.14 6.78c5.325-1.268 10.086-1.754 14.219-1.442 4.281.173 8.32 2.03 11.24 5.167 3.369 3.12 6.385 7.909 9.085 14.376 2.845 6.433 5.584 15.211 8.235 26.345 2.644 11.102 4.139 20.244 4.546 27.395.522 6.986.004 12.685-1.551 17.114a19.235 19.235 0 01-7.876 9.89c-3.576 2.165-7.949 3.854-13.161 5.096l-15.426 3.674-24.754-103.937z" fill="#F14D34"/><path d="M118.855 55.758l23.882-5.688-5.688-23.882-23.882 5.688 5.688 23.882z" fill="#F9E050"/><path d="M117.716 156.943l23.882-5.688-5.688-23.882-23.882 5.688 5.688 23.882z" fill="#F9B038"/><path d="M89.284 37.563l23.883-5.688-5.65-23.72-23.882 5.687 5.65 23.721z" fill="#F9E050"/></g><path transform="rotate(-13.396 12 30.886)" fill="url(#paint0_linear_94:668)" d="M12 30.886h245.381v147.229H12z"/></g></g><defs><filter id="filter0_dd_94:668" x="-5.07" y="-26" width="307.08" height="261.169" filterUnits="userSpaceOnUse" color-interpolation-filters="sRGB"><feFlood flood-opacity="0" result="BackgroundImageFix"/><feColorMatrix in="SourceAlpha" values="0 0 0 0 0 0 0 0 0 0 0 0 0 0 0 0 0 0 127 0" result="hardAlpha"/><feOffset dy="44.097"/><feGaussianBlur stdDeviation="8.535"/><feColorMatrix values="0 0 0 0 0 0 0 0 0 0.0495833 0 0 0 0 0.145833 0 0 0 0.25 0"/><feBlend in2="BackgroundImageFix" result="effect1_dropShadow_94:668"/><feColorMatrix in="SourceAlpha" values="0 0 0 0 0 0 0 0 0 0 0 0 0 0 0 0 0 0 127 0" result="hardAlpha"/><feOffset dy="4.979"/><feColorMatrix values="0 0 0 0 0.2375 0 0 0 0 0.136562 0 0 0 0 0.136562 0 0 0 1 0"/><feBlend in2="effect1_dropShadow_94:668" result="effect2_dropShadow_94:668"/><feBlend in="SourceGraphic" in2="effect2_dropShadow_94:668" result="shape"/></filter><filter id="filter1_d_94:668" x=".583" y="-16.087" width="289.32" height="245.57" filterUnits="userSpaceOnUse" color-interpolation-filters="sRGB"><feFlood flood-opacity="0" result="BackgroundImageFix"/><feColorMatrix in="SourceAlpha" values="0 0 0 0 0 0 0 0 0 0 0 0 0 0 0 0 0 0 127 0" result="hardAlpha"/><feOffset dy="44.097"/><feGaussianBlur stdDeviation="8.535"/><feColorMatrix values="0 0 0 0 0 0 0 0 0 0.0495833 0 0 0 0 0.145833 0 0 0 0.25 0"/><feBlend in2="BackgroundImageFix" result="effect1_dropShadow_94:668"/><feBlend in="SourceGraphic" in2="effect1_dropShadow_94:668" result="shape"/></filter><linearGradient id="paint0_linear_94:668" x1="116.198" y1="-39.884" x2="173.098" y2="136.862" gradientUnits="userSpaceOnUse"><stop stop-color="#fff"/><stop offset="1" stop-color="#fff" stop-opacity="0"/></linearGradient></defs></svg>