<svg xmlns="http://www.w3.org/2000/svg" id="svg58" version="1.1" width="345" height="50"><defs id="defs4"><style id="style2">.cls-1{fill:#b0bdd2}.cls-2{fill:#8ea2c3}.cls-3{fill:#344e7b}.cls-4{fill:#fff}</style></defs><path class="cls-1" id="rect8" fill="#f4f464" fill-opacity="1" d="M7.059 8.2h6.056v6.056H7.059z"/><path class="cls-1" id="polygon20" transform="translate(7.059 1.429) scale(.34235)" fill="#f4ac2b" fill-opacity="1" d="M88.44 19.78H70.76v53.07H53.07v17.69h35.37V37.47z"/><g id="g4179"><path id="rect10" class="cls-2" fill="#f9e050" fill-opacity="1" d="M19.171 2.144h6.056V8.2h-6.056z"/><path id="rect12" class="cls-2" fill="#f9e050" fill-opacity="1" d="M25.227 8.2h6.056v6.056h-6.056z"/><path id="rect14" class="cls-2" fill="#f9e050" fill-opacity="1" d="M19.171 14.256h6.056v6.056h-6.056z"/><path id="rect16" class="cls-2" fill="#f9e050" fill-opacity="1" d="M25.227 20.313h6.056v6.056h-6.056z"/><path id="rect18" class="cls-2" fill="#f9e050" fill-opacity="1" d="M19.171 26.369h6.056v6.056h-6.056z"/><path id="rect22" class="cls-2" fill="#f9e050" fill-opacity="1" d="M25.227 32.425h6.056v6.056h-6.056z"/></g><path id="polygon24" class="cls-3" transform="translate(7.059 1.429) scale(.34235)" fill="#f14d34" fill-opacity="1" d="M141.51 72.85v17.69h17.69V19.78h-17.69v35.38z"/><path id="polygon26" class="cls-3" transform="translate(7.059 1.429) scale(.34235)" fill="#f14d34" fill-opacity="1" d="M70.76 108.23h70.75V90.54h-35.38V19.78h35.38V2.09H70.76v17.69h17.68v70.76H70.76z"/><g id="g4157"><path class="cls-4" d="M77.946 16.773a20.822 20.822 0 014.012-2.859 8.316 8.316 0 013.91-1.003 10.291 10.291 0 012.256.226 8.021 8.021 0 011.958.726l-.955 5.416a8.216 8.216 0 00-1.855-.801 7.597 7.597 0 00-2.205-.302 5.751 5.751 0 00-1.53.199 8.696 8.696 0 00-1.503.578 11.715 11.715 0 00-1.606.962c-.551.384-1.178.812-1.88 1.277V33.97h7.423v4.45H66.316v-4.45h6.217V18.125h-5.905v-4.512h10.931z" id="path30" fill="#fff"/><path class="cls-4" d="M98.668 13.613v15.933q0 2.615.877 3.594a3.037 3.037 0 002.396.98 6.926 6.926 0 002.807-.64 14.012 14.012 0 003.01-1.866V13.613h6.015V38.43h-4.927l-.4-2.554a23.468 23.468 0 01-2.006 1.253 16.371 16.371 0 01-2.054.952 14.16 14.16 0 01-2.133.626 11.099 11.099 0 01-2.28.226q-3.609 0-5.478-1.93-1.87-1.932-1.849-6.242V13.613z" id="path32" fill="#fff"/><path class="cls-4" d="M118.586 13.613h4.916l.401 2.557a23.848 23.848 0 013.834-2.157 10.27 10.27 0 014.187-.852 10.089 10.089 0 013.56.592 6.162 6.162 0 012.74 2.054 10.671 10.671 0 011.756 3.862 24.341 24.341 0 01.626 6.015 19.401 19.401 0 01-.852 6.162 11.503 11.503 0 01-2.284 4.109 8.364 8.364 0 01-3.334 2.28 11.767 11.767 0 01-4.108.684 11.352 11.352 0 01-2.986-.376 11.517 11.517 0 01-2.632-1.079l-.048.052q.096 1.451.174 2.708c.048.835.076 1.711.076 2.605v6.217h-6.026zm6.019 19.254a12.468 12.468 0 002.205 1.003 7.128 7.128 0 002.256.342 6.135 6.135 0 002.081-.342 4.036 4.036 0 001.756-1.288 6.957 6.957 0 001.226-2.557 15.519 15.519 0 00.452-4.108 21.702 21.702 0 00-.301-4.012 6.577 6.577 0 00-.877-2.397A3.081 3.081 0 00132 18.33a5.135 5.135 0 00-1.88-.342 5.878 5.878 0 00-2.554.613 22.061 22.061 0 00-2.958 1.78z" id="path34" fill="#fff"/><path class="cls-4" d="M158.665 21.333q0-1.801-1.154-2.708-1.153-.907-3.81-.9a29.48 29.48 0 00-3.766.25q-1.958.25-3.861.65l-.552-4.41a42.5 42.5 0 014.45-.804 37.573 37.573 0 014.715-.301 19.47 19.47 0 014.663.479 7.874 7.874 0 013.081 1.427 5.402 5.402 0 011.712 2.459 10.829 10.829 0 01.527 3.557V38.43h-5.002l-.342-2.304a26.262 26.262 0 01-4.03 1.979 12.455 12.455 0 01-4.54.828q-3.423 0-5.59-1.804t-2.194-5.515a9.01 9.01 0 01.654-3.513 5.909 5.909 0 012.18-2.605 11.428 11.428 0 014.037-1.606 29.319 29.319 0 016.162-.551h2.657zm-2.506 5.916a26.046 26.046 0 00-3.766.226 7.19 7.19 0 00-2.396.729 2.876 2.876 0 00-1.253 1.229 3.954 3.954 0 00-.342 1.712q0 1.756.975 2.53c.654.52 1.565.777 2.739.777a8.367 8.367 0 003.132-.59 23.8 23.8 0 003.424-1.766V27.25z" id="path36" fill="#fff"/><path class="cls-4" d="M184.293 33.969v4.45h-14.276V5.88h-7.836V1.43h13.838v32.54z" id="path38" fill="#fff"/><path class="cls-4" d="M187.8 22.538h16.432V27.7h-16.433z" id="path40" fill="#fff"/><path class="cls-4" d="M231.212 37.93q-1.756.4-3.735.685a25.998 25.998 0 01-3.933.3 24.255 24.255 0 01-5.642-.574 8.398 8.398 0 01-3.91-2.034 9.01 9.01 0 01-2.307-3.91q-.78-2.454-.777-6.217.003-3.762.951-6.316a10.25 10.25 0 012.633-4.036 9.291 9.291 0 014.088-2.133 22.13 22.13 0 015.364-.603 28.682 28.682 0 013.859.254 31.476 31.476 0 013.611.684l-.55 4.448a24.002 24.002 0 00-3.11-.579 29.346 29.346 0 00-3.361-.175 13.783 13.783 0 00-3.133.326 5.057 5.057 0 00-2.355 1.253 5.748 5.748 0 00-1.479 2.533 14.208 14.208 0 00-.507 4.16 16.583 16.583 0 00.432 4.19 5.82 5.82 0 001.328 2.533 4.676 4.676 0 002.308 1.305 14.303 14.303 0 003.423.342 22.883 22.883 0 003.136-.226 30.757 30.757 0 003.232-.626z" id="path42" fill="#fff"/><path class="cls-4" d="M257.724 25.845q0 3.862-.801 6.419a9.997 9.997 0 01-2.3 4.084 8.24 8.24 0 01-3.626 2.154 16.902 16.902 0 01-4.793.63 18.425 18.425 0 01-4.851-.579 7.675 7.675 0 01-3.53-2.03 9.408 9.408 0 01-2.16-3.94q-.757-2.507-.753-6.368.003-3.862.801-6.42a10.15 10.15 0 012.277-4.084 8.107 8.107 0 013.58-2.174 16.826 16.826 0 014.793-.626 18.432 18.432 0 014.852.575 7.874 7.874 0 013.553 2.03 9.278 9.278 0 012.208 3.961q.75 2.513.75 6.368zm-6.015.202a22.564 22.564 0 00-.342-4.262 6.748 6.748 0 00-1.007-2.606 3.423 3.423 0 00-1.712-1.304 7.49 7.49 0 00-2.396-.342 7.032 7.032 0 00-2.345.342 3.646 3.646 0 00-1.654 1.277 6.015 6.015 0 00-1.027 2.581 24.509 24.509 0 00-.301 4.263 24.937 24.937 0 00.301 4.29 6.22 6.22 0 001.027 2.639 3.574 3.574 0 001.685 1.304 8.216 8.216 0 004.762 0 3.485 3.485 0 001.687-1.277 6.57 6.57 0 001.007-2.609 22.968 22.968 0 00.315-4.296z" id="path44" fill="#fff"/><path class="cls-4" d="M278.765 35.876a25.426 25.426 0 01-3.834 2.18 10.613 10.613 0 01-7.748.274 6.162 6.162 0 01-2.739-2.054 10.585 10.585 0 01-1.756-3.861 24.341 24.341 0 01-.626-6.015 19.34 19.34 0 01.852-6.163 11.534 11.534 0 012.277-4.087 8.34 8.34 0 013.334-2.28 11.753 11.753 0 014.108-.685 11.982 11.982 0 012.986.342 10.904 10.904 0 012.632 1.051l.048-.048q-.1-1.407-.174-2.684a46.854 46.854 0 01-.076-2.632V1.429h6.019v37h-4.903zm-.685-16.697a12.468 12.468 0 00-2.205-1.003 7.032 7.032 0 00-2.256-.342 6.056 6.056 0 00-2.081.342 4.074 4.074 0 00-1.756 1.308 7.022 7.022 0 00-1.226 2.564 15.861 15.861 0 00-.452 4.174 21.339 21.339 0 00.301 3.998 6.847 6.847 0 00.877 2.417 2.876 2.876 0 001.37 1.181 5.22 5.22 0 001.855.302 6.104 6.104 0 002.612-.613 20.003 20.003 0 002.958-1.794z" id="path46" fill="#fff"/><path class="cls-4" d="M309.813 37.78a32.109 32.109 0 01-4.225.852 36.443 36.443 0 01-4.889.301 22.595 22.595 0 01-5.04-.503 7.956 7.956 0 01-3.71-1.88 8.744 8.744 0 01-2.308-3.858q-.8-2.486-.8-6.505 0-3.861.852-6.419a10.075 10.075 0 012.396-4.084 8.603 8.603 0 013.735-2.157 18.86 18.86 0 019.244-.1 7.052 7.052 0 013.183 1.805 7.874 7.874 0 011.907 3.485 20.746 20.746 0 01.627 5.563c0 .572 0 1.13-.028 1.681-.027.552-.058 1.13-.123 1.712H294.87a12.403 12.403 0 00.48 3.461 4.29 4.29 0 001.252 2.006 4.543 4.543 0 002.14.98 16.35 16.35 0 003.06.25 25.782 25.782 0 003.886-.274q1.777-.278 3.633-.73zm-4.362-13.99a12.729 12.729 0 00-.342-3.159 4.273 4.273 0 00-.976-1.93 3.605 3.605 0 00-1.578-.953 7.607 7.607 0 00-2.133-.273 7.912 7.912 0 00-2.256.297 4.21 4.21 0 00-1.729 1.003 4.615 4.615 0 00-1.13 1.931 11.12 11.12 0 00-.452 3.081z" id="path48" fill="#fff"/><path class="cls-4" d="M326.742 16.773a20.822 20.822 0 014.012-2.859 8.316 8.316 0 013.91-1.003 10.291 10.291 0 012.256.226 7.997 7.997 0 011.955.726l-.952 5.416a8.278 8.278 0 00-1.866-.801 7.597 7.597 0 00-2.205-.302 5.751 5.751 0 00-1.53.199 8.696 8.696 0 00-1.503.578 11.715 11.715 0 00-1.609.962c-.551.384-1.178.812-1.88 1.277V33.97h7.42v4.45h-19.641v-4.45h6.227V18.125h-5.926v-4.512h10.931z" id="path50" fill="#fff"/></g><path id="path3037" word-spacing="0" letter-spacing="0" font-weight="700" style="line-height:125%;-inkscape-font-specification:'CamingoCode Bold'" d="M293.892-234.609q9.49-8.374 18.059-12.889 8.604-4.515 17.634-4.515 5.665 0 10.162 1.133 4.532.886 8.817 3.187l-4.285 24.38q-3.841-2.267-8.356-3.63-4.533-1.38-9.95-1.38-3.612 0-6.994.884-3.186.921-6.78 2.727-3.4 1.593-7.224 4.284-3.63 2.48-8.374 5.63v57.63h33.462v20.112h-88.577v-20.077h28.009v-71.386h-26.646v-20.325h49.22zm101.625-14.235v71.598q0 11.756 3.824 16.288 4.072 4.25 10.853 4.25 6.055 0 12.606-2.692 6.55-2.939 13.561-8.356v-81.088h27.089v111.823h-22.131l-1.824-11.508q-4.515 3.134-9.03 5.63-4.514 2.479-9.259 4.285-4.745 1.805-9.737 2.708-4.728 1.169-10.145 1.169-16.288 0-24.61-8.587-8.374-8.781-8.374-28.221v-77.299zm97.977 0h22.131l1.806 11.508q8.587-5.842 17.173-9.702 8.817-3.842 18.98-3.842 8.8 0 16.04 2.71 7.224 2.708 12.217 9.259 5.17 6.55 7.878 17.403 2.904 10.836 2.904 27.089 0 16.288-3.842 27.796-3.842 11.295-10.393 18.519-6.303 7.011-14.872 10.162-8.604 3.187-18.537 3.187-7.223 0-13.561-1.823-6.09-1.594-11.739-4.745l-.23.23q.496 6.55.709 12.216.46 5.63.46 11.72v28.027H493.53zm27.088 86.753q5.206 2.922 9.95 4.497 4.745 1.594 10.18 1.594 4.958 0 9.296-1.594 4.514-1.593 7.896-5.842 3.63-4.32 5.665-11.544 2.036-7.223 2.036-18.519 0-11.065-1.345-18.059-1.381-7.028-4.072-10.852-2.479-3.842-6.339-5.206-3.611-1.54-8.32-1.54-5.666 0-11.544 2.939-5.878 2.691-13.332 7.879zm163.768-51.963q0-8.144-5.222-12.216-5.223-4.072-17.174-4.072-8.144 0-16.961 1.15-8.817 1.134-17.404 2.94l-2.478-19.883q9.472-2.266 20.077-3.611 10.623-1.328 21.245-1.328 12.394 0 20.998 2.266 8.605 2.036 13.81 6.32 5.417 4.25 7.666 11.048 2.478 6.781 2.478 16.04v78.38h-22.502l-1.594-10.376q-8.569 5.223-18.288 9.03-9.49 3.647-20.325 3.647-15.403 0-25.318-8.144-9.738-8.145-9.738-24.84 0-8.8 2.94-15.81 2.938-7.011 9.737-11.756 6.976-4.745 18.271-7.26 11.296-2.478 27.796-2.478h11.969zm-11.33 26.646q-10.163 0-16.926 1.133-6.781.885-10.853 3.187-4.072 2.23-5.666 5.63-1.558 3.151-1.558 7.666 0 7.914 4.285 11.508 4.497 3.417 12.393 3.417 7.436 0 13.987-2.479 6.798-2.726 15.58-7.914v-22.13zm147.302 30.275v20.112H755.93v-146.595h-35.232v-20.147h62.32v146.63zm25.814-51.521h74.094v23.282h-74.094zm197.637 69.367q-7.914 1.806-16.944 3.187-8.817 1.328-17.634 1.328-14.694 0-25.494-2.48-10.623-2.708-17.652-9.259-6.763-6.55-10.392-17.633-3.364-11.066-3.364-28.01 0-17.173 4.284-28.45 4.285-11.296 11.738-18.06 7.684-7.028 18.52-9.737 10.8-2.709 24.131-2.709 9.03 0 17.404 1.133 8.356 1.133 16.288 3.187l-2.514 19.83q-7.224-1.771-13.987-2.48-6.798-.884-15.155-.884-7.914 0-14.252 1.593-6.09 1.345-10.623 5.63-4.285 4.072-6.55 11.296-2.25 7.259-2.25 18.767 0 11.738 1.807 18.944 2.036 7.028 6.108 11.33 4.072 4.25 10.392 5.843 6.321 1.593 15.35 1.593 6.763 0 13.987-.885 7.436-1.15 14.695-2.956zm130.518-54.442q0 17.386-3.629 28.912-3.612 11.508-10.375 18.519-6.78 6.78-16.5 9.49-9.49 2.938-21.459 2.938-12.428 0-21.918-2.708-9.49-2.479-16.04-9.03-6.321-6.55-9.703-17.846-3.399-11.296-3.399-28.682 0-17.403 3.63-28.929 3.611-11.508 10.162-18.236 6.763-7.028 16.253-9.737 9.49-2.94 21.688-2.94 12.429 0 21.918 2.71 9.49 2.478 16.04 9.029 6.552 6.55 9.915 17.882 3.417 11.277 3.417 28.681zm-27.336.885q0-11.72-1.593-19.192-1.345-7.436-4.515-11.685-2.939-4.302-7.683-5.895-4.515-1.594-10.623-1.594-6.09 0-10.623 1.594-4.25 1.593-7.436 5.878-3.187 4.072-4.515 11.508-1.416 7.436-1.416 19.192 0 11.755 1.38 19.44 1.329 7.47 4.498 11.755 3.187 4.285 7.436 5.878 4.532 1.594 10.853 1.594 6.108 0 10.623-1.594 4.514-1.593 7.436-5.665 3.186-4.285 4.532-11.739 1.593-7.683 1.593-19.422zm123.526 44.297q-8.605 5.878-17.404 9.915-8.587 3.86-18.767 3.86-8.799 0-16.023-2.71-7.223-2.708-12.428-9.259-4.957-6.55-7.914-17.439-2.709-10.835-2.709-27.088 0-16.5 3.842-27.796t10.145-18.307q6.55-7.206 15.173-10.357 8.586-3.187 18.536-3.187 7.224 0 13.314 1.593 6.338 1.594 11.986 4.745l.213-.23q-.443-6.303-.885-11.95-.23-5.878-.23-11.969v-35.037h27.123v166.724h-22.13zm-3.187-75.244q-5.188-2.922-9.915-4.497-4.78-1.594-10.18-1.594-4.957 0-9.49 1.594-4.32 1.593-7.931 5.878-3.4 4.284-5.436 11.508-2.036 7.258-2.036 18.766 0 11.048 1.381 18.06 1.364 6.78 3.842 10.834 2.71 3.842 6.32 5.206 3.613 1.38 8.357 1.38 5.878 0 11.756-2.708 5.878-2.709 13.332-7.897zm149.286 83.831q-9.03 2.479-19.21 3.842-9.914 1.31-21.918 1.31-12.677 0-22.627-2.248-9.914-2.267-16.713-8.375-6.78-6.32-10.41-17.386-3.612-11.295-3.612-29.39 0-17.35 3.842-28.893 3.842-11.508 10.853-18.272 6.993-7.01 16.713-9.737 9.915-2.921 21.458-2.921 11.738 0 20.325 2.478 8.587 2.266 14.235 8.144 5.877 5.666 8.586 15.58 2.94 9.95 2.94 25.07 0 3.807-.23 7.649 0 3.611-.461 7.684h-71.173q.248 9.737 2.054 15.58 2.036 5.878 5.665 9.029 3.825 3.187 9.702 4.302 5.896 1.116 13.81 1.116 9.472 0 17.386-1.133 8.144-1.364 16.465-3.364zm-19.653-63.029q0-8.586-1.593-14.234-1.345-5.666-4.285-8.587-2.938-3.151-7.223-4.284-4.072-1.328-9.49-1.328-5.665 0-10.18 1.363-4.48 1.363-7.86 4.532-3.188 3.187-4.958 8.817-1.824 5.418-2.054 13.775zm101.147-31.62q9.49-8.374 18.059-12.889 8.587-4.515 17.634-4.515 5.665 0 10.197 1.133 4.515.886 8.817 3.187l-4.302 24.38q-3.824-2.267-8.321-3.63-4.532-1.38-9.915-1.38-3.647 0-7.046.884-3.151.921-6.763 2.727-3.364 1.593-7.224 4.284-3.612 2.48-8.356 5.63v57.63h33.426v20.112h-88.523v-20.077h27.973v-71.386h-26.645v-20.325h49.272z" font-family="CamingoCode" fill="#fff" stroke-width="17.705"/></svg>