<svg width="679" height="655" fill="none" xmlns="http://www.w3.org/2000/svg" xmlns:xlink="http://www.w3.org/1999/xlink"><g opacity=".78" filter="url(#filter0_f_94:310)"><path d="M-50 578a9 9 0 009 9h616a148.483 148.483 0 00-70.86-18H-41a9 9 0 00-9 9z" fill="#2D2F38"/></g><g filter="url(#filter1_d_94:310)"><rect x="-50" y="65" width="547" height="482" rx="20" fill="#fff"/><rect x="-50" y="65" width="547" height="482" rx="20" fill="url(#paint0_linear_94:310)" fill-opacity=".096"/><path d="M-50 564.5c0-9.665 7.835-17.5 17.5-17.5H610a119.498 119.498 0 01-84.497 35H-32.5c-9.665 0-17.5-7.835-17.5-17.5z" fill="#fff"/><path d="M-50 564.5c0-9.665 7.835-17.5 17.5-17.5H610a119.498 119.498 0 01-84.497 35H-32.5c-9.665 0-17.5-7.835-17.5-17.5z" fill="url(#paint1_linear_94:310)" fill-opacity=".32"/><path d="M-50 564.5c0-9.665 7.835-17.5 17.5-17.5H610a119.498 119.498 0 01-84.497 35H-32.5c-9.665 0-17.5-7.835-17.5-17.5z" fill="url(#paint2_linear_94:310)" fill-opacity=".396"/><mask id="a" style="mask-type:alpha" maskUnits="userSpaceOnUse" x="-50" y="100" width="511" height="415"><path fill="#C4C4C4" d="M-50 100h511v415H-50z"/></mask><g mask="url(#a)"><rect x="-456" y="49" width="1175" height="693" rx="5" fill="#fff"/><rect x="-456" y="49" width="1175" height="693" rx="5" fill="url(#pattern0)"/><g filter="url(#filter2_d_94:310)"><path fill="#F6F7FB" d="M-214 100h675v420h-675z"/></g><g clip-path="url(#clip0_94:310)"><g filter="url(#filter3_d_94:310)"><rect x="281" y="263" width="156" height="96" rx="3" fill="#538AFC"/></g><path d="M295.154 291.6v2.86h3.08V307h3.564v-15.4h-6.644zm14.599 5.786h-1.254l.242-2.926h6.424v-2.86h-9.394l-.792 8.668h3.938c2.794 0 3.586.792 3.586 2.002 0 1.254-1.1 2.002-2.882 2.002-1.606 0-3.212-.506-4.378-1.386l-1.408 2.728c1.496 1.056 3.74 1.65 5.874 1.65 4.4 0 6.402-2.376 6.402-5.104s-1.804-4.774-6.358-4.774z" fill="#fff"/><path opacity=".6" d="M299.12 321.66V324c-.43.2-.9.3-1.34.3-.72 0-1.15-.31-1.15-1.01v-1.63h-1.25v1.71c0 1.33.78 1.93 2.13 1.93a3.7 3.7 0 001.61-.37V327h1.25v-5.34h-1.25zm7.931 2.7c0-1.67-1.14-2.76-2.7-2.76-1.59 0-2.76 1.14-2.76 2.73s1.16 2.74 2.95 2.74c.92 0 1.67-.3 2.15-.87l-.67-.77c-.38.39-.85.58-1.45.58-.93 0-1.58-.5-1.73-1.28h4.19c.01-.12.02-.27.02-.37zm-2.7-1.76c.82 0 1.41.53 1.51 1.3h-3.03c.12-.78.71-1.3 1.52-1.3zm4.519-.94l-.09 2.06c-.06 1.11-.09 2.25-.91 2.25-.07 0-.15-.01-.24-.03l-.06 1.05c.26.07.49.11.69.11 1.26 0 1.54-1.42 1.63-3.32l.05-1.06h2V327h1.25v-5.34h-4.32zm8.383 5.41c1.66 0 2.85-1.14 2.85-2.74 0-1.6-1.19-2.73-2.85-2.73-1.64 0-2.84 1.13-2.84 2.73s1.2 2.74 2.84 2.74zm0-1.07c-.9 0-1.58-.65-1.58-1.67s.68-1.67 1.58-1.67c.91 0 1.59.65 1.59 1.67s-.68 1.67-1.59 1.67zm7.955-1.78c.51-.22.82-.63.82-1.18 0-.88-.78-1.38-2.08-1.38h-2.61V327h2.72c1.44 0 2.14-.56 2.14-1.5 0-.65-.33-1.08-.99-1.28zm-2.68-1.65h1.31c.64 0 .97.21.97.65 0 .44-.33.67-.97.67h-1.31v-1.32zm1.43 3.52h-1.43v-1.37h1.47c.68 0 .99.23.99.7 0 .46-.36.67-1.03.67zm8.571-1.73c0-1.67-1.14-2.76-2.7-2.76-1.59 0-2.76 1.14-2.76 2.73s1.16 2.74 2.95 2.74c.92 0 1.67-.3 2.15-.87l-.67-.77c-.38.39-.85.58-1.45.58-.93 0-1.58-.5-1.73-1.28h4.19c.01-.12.02-.27.02-.37zm-2.7-1.76c.82 0 1.41.53 1.51 1.3h-3.03c.12-.78.71-1.3 1.52-1.3zm7.898 4.4h1.47l-2.07-2.77 1.94-2.57h-1.34l-1.58 2.16h-1v-2.16h-1.25V327h1.25v-2.14h.97l1.61 2.14zm-38.017 9.22c.51-.22.82-.63.82-1.18 0-.88-.78-1.38-2.08-1.38h-2.61V339h2.72c1.44 0 2.14-.56 2.14-1.5 0-.65-.33-1.08-.99-1.28zm-2.68-1.65h1.31c.64 0 .97.21.97.65 0 .44-.33.67-.97.67h-1.31v-1.32zm1.43 3.52h-1.43v-1.37h1.47c.68 0 .99.23.99.7 0 .46-.36.67-1.03.67zm10.165.91h1.47l-2.07-2.77 1.94-2.57h-1.34l-1.58 2.16h-1v-2.16h-1.25V339h1.25v-2.14h.97l1.61 2.14zm4.556.07c1.66 0 2.85-1.14 2.85-2.74 0-1.6-1.19-2.73-2.85-2.73-1.64 0-2.84 1.13-2.84 2.73s1.2 2.74 2.84 2.74zm0-1.07c-.9 0-1.58-.65-1.58-1.67s.68-1.67 1.58-1.67c.91 0 1.59.65 1.59 1.67s-.68 1.67-1.59 1.67zm10.465 1l-.01-5.34h-1.17l-1.99 3.34-1.9-3.34h-1.31V339h1.14v-3.55l1.77 2.99h.54l1.8-2.98V339h1.13zm3.666-5.4c-.86 0-1.69.22-2.26.66l.49.91c.4-.33 1.02-.53 1.62-.53.89 0 1.33.43 1.33 1.16v.08h-1.38c-1.62 0-2.22.7-2.22 1.59 0 .93.77 1.6 1.99 1.6.8 0 1.38-.26 1.68-.72v.65h1.18v-3.13c0-1.54-.89-2.27-2.43-2.27zm-.17 4.56c-.64 0-1.02-.29-1.02-.74 0-.39.23-.71 1.08-.71h1.29v.62c-.21.55-.74.83-1.35.83zm4.147.84h1.25v-2.11h2.69V339h1.25v-5.34h-1.25v2.17h-2.69v-2.17h-1.25V339zm11.775-1.06v-4.28h-4.4l-.07 1.83c-.06 1.25-.19 2.42-.94 2.45h-.25v2.25h1.16V339h4.12v1.19h1.17v-2.25h-.79zm-3.33-2.36l.03-.86h2.05v3.22h-2.63c.43-.41.51-1.36.55-2.36zm10.237.78c0-1.67-1.14-2.76-2.7-2.76-1.59 0-2.76 1.14-2.76 2.73s1.16 2.74 2.95 2.74c.92 0 1.67-.3 2.15-.87l-.67-.77c-.38.39-.85.58-1.45.58-.93 0-1.58-.5-1.73-1.28h4.19c.01-.12.02-.27.02-.37zm-2.7-1.76c.82 0 1.41.53 1.51 1.3h-3.03c.12-.78.71-1.3 1.52-1.3z" fill="#fff"/></g><g clip-path="url(#clip1_94:310)"><g filter="url(#filter4_d_94:310)"><rect x="281" y="376" width="156" height="96" rx="3" fill="#FA6D89"/></g><path d="M309.96 413.862h-2.508v-2.882h-3.366v2.882h-4.136l6.732-9.262h-3.74l-7.26 9.768v2.398h8.294V420h3.476v-3.234h2.508v-2.904zm3.542 2.046c-1.21 0-2.134.836-2.134 2.112 0 .902.462 1.584 1.188 1.87l-.968 3.498h2.178l1.254-3.168c.506-1.21.594-1.628.594-2.2 0-1.254-.88-2.112-2.112-2.112zm8.991-5.522h-1.254l.242-2.926h6.424v-2.86h-9.394l-.792 8.668h3.938c2.794 0 3.586.792 3.586 2.002 0 1.254-1.1 2.002-2.882 2.002-1.606 0-3.212-.506-4.378-1.386l-1.408 2.728c1.496 1.056 3.74 1.65 5.874 1.65 4.4 0 6.402-2.376 6.402-5.104s-1.804-4.774-6.358-4.774zm22.043-2.222v4.972a5.766 5.766 0 01-2.53.572c-1.364 0-2.178-.572-2.178-2.046v-3.498h-3.432v3.718c0 3.102 1.716 4.466 4.84 4.466 1.298 0 2.376-.286 3.3-.748v4.4h3.432v-11.836h-3.432zm11.325-.176c-1.892 0-3.806.506-5.104 1.43l1.232 2.398c.858-.682 2.156-1.1 3.41-1.1 1.848 0 2.728.858 2.728 2.332h-2.728c-3.608 0-5.082 1.452-5.082 3.542 0 2.046 1.65 3.586 4.422 3.586 1.738 0 2.97-.572 3.608-1.65V420h3.212v-6.754c0-3.586-2.09-5.258-5.698-5.258zm-.264 9.878c-1.21 0-1.936-.572-1.936-1.43 0-.792.506-1.386 2.112-1.386h2.354v1.21c-.396 1.078-1.386 1.606-2.53 1.606zm14.576 2.31c2.486 0 4.444-1.1 5.302-2.992l-2.662-1.452c-.638 1.144-1.584 1.628-2.662 1.628-1.738 0-3.102-1.21-3.102-3.278s1.364-3.278 3.102-3.278c1.078 0 2.024.506 2.662 1.628l2.662-1.43c-.858-1.936-2.816-3.014-5.302-3.014-3.85 0-6.6 2.53-6.6 6.094 0 3.564 2.75 6.094 6.6 6.094zm11.985-12.188c-1.892 0-3.806.506-5.104 1.43l1.232 2.398c.858-.682 2.156-1.1 3.41-1.1 1.848 0 2.728.858 2.728 2.332h-2.728c-3.608 0-5.082 1.452-5.082 3.542 0 2.046 1.65 3.586 4.422 3.586 1.738 0 2.97-.572 3.608-1.65V420h3.212v-6.754c0-3.586-2.09-5.258-5.698-5.258zm-.264 9.878c-1.21 0-1.936-.572-1.936-1.43 0-.792.506-1.386 2.112-1.386h2.354v1.21c-.396 1.078-1.386 1.606-2.53 1.606z" fill="#fff"/><path opacity=".6" d="M298.27 440.07c1.04 0 1.87-.45 2.28-1.25l-.96-.56c-.32.51-.8.74-1.33.74-.92 0-1.62-.63-1.62-1.67 0-1.03.7-1.67 1.62-1.67.53 0 1.01.23 1.33.74l.96-.56c-.41-.81-1.24-1.24-2.28-1.24-1.69 0-2.89 1.13-2.89 2.73s1.2 2.74 2.89 2.74zm6.341-5.47c-.73 0-1.35.25-1.77.76v-.7h-1.19v7.28h1.25v-2.59c.43.49 1.03.72 1.71.72 1.56 0 2.71-1.08 2.71-2.74 0-1.65-1.15-2.73-2.71-2.73zm-.14 4.4c-.9 0-1.59-.65-1.59-1.67s.69-1.67 1.59-1.67c.9 0 1.58.65 1.58 1.67s-.68 1.67-1.58 1.67zm9.094-1.64c0-1.67-1.14-2.76-2.7-2.76-1.59 0-2.76 1.14-2.76 2.73s1.16 2.74 2.95 2.74c.92 0 1.67-.3 2.15-.87l-.67-.77c-.38.39-.85.58-1.45.58-.93 0-1.58-.5-1.73-1.28h4.19c.01-.12.02-.27.02-.37zm-2.7-1.76c.82 0 1.41.53 1.51 1.3h-3.03c.12-.78.71-1.3 1.52-1.3zm8.908 3.34v-4.28h-4.4l-.07 1.83c-.06 1.25-.19 2.42-.94 2.45h-.25v2.25h1.16V440h4.12v1.19h1.17v-2.25h-.79zm-3.33-2.36l.03-.86h2.05v3.22h-2.63c.43-.41.51-1.36.55-2.36zm5.237 3.42h1.25v-2.11h2.69V440h1.25v-5.34h-1.25v2.17h-2.69v-2.17h-1.25V440zm11.865-2.64c0-1.67-1.14-2.76-2.7-2.76-1.59 0-2.76 1.14-2.76 2.73s1.16 2.74 2.95 2.74c.92 0 1.67-.3 2.15-.87l-.67-.77c-.38.39-.85.58-1.45.58-.93 0-1.58-.5-1.73-1.28h4.19c.01-.12.02-.27.02-.37zm-2.7-1.76c.82 0 1.41.53 1.51 1.3h-3.03c.12-.78.71-1.3 1.52-1.3zm9.067 1.76c0-1.67-1.14-2.76-2.7-2.76-1.59 0-2.76 1.14-2.76 2.73s1.16 2.74 2.95 2.74c.92 0 1.67-.3 2.15-.87l-.67-.77c-.38.39-.85.58-1.45.58-.93 0-1.58-.5-1.73-1.28h4.19c.01-.12.02-.27.02-.37zm-2.7-1.76c.82 0 1.41.53 1.51 1.3h-3.03c.12-.78.71-1.3 1.52-1.3zm10.701 1.62c.51-.22.82-.63.82-1.18 0-.88-.78-1.38-2.08-1.38h-2.61V440h2.72c1.44 0 2.14-.56 2.14-1.5 0-.65-.33-1.08-.99-1.28zm-2.68-1.65h1.31c.64 0 .97.21.97.65 0 .44-.33.67-.97.67h-1.31v-1.32zm1.43 3.52h-1.43v-1.37h1.47c.68 0 .99.23.99.7 0 .46-.36.67-1.03.67zm6.532-4.49c-.73 0-1.35.25-1.77.76v-.7h-1.19v7.28h1.25v-2.59c.43.49 1.03.72 1.71.72 1.56 0 2.71-1.08 2.71-2.74 0-1.65-1.15-2.73-2.71-2.73zm-.14 4.4c-.9 0-1.59-.65-1.59-1.67s.69-1.67 1.59-1.67c.9 0 1.58.65 1.58 1.67s-.68 1.67-1.58 1.67zm9.094-1.64c0-1.67-1.14-2.76-2.7-2.76-1.59 0-2.76 1.14-2.76 2.73s1.16 2.74 2.95 2.74c.92 0 1.67-.3 2.15-.87l-.67-.77c-.38.39-.85.58-1.45.58-.93 0-1.58-.5-1.73-1.28h4.19c.01-.12.02-.27.02-.37zm-2.7-1.76c.82 0 1.41.53 1.51 1.3h-3.03c.12-.78.71-1.3 1.52-1.3zm10.447 4.4l-.01-5.34h-1.17l-1.99 3.34-1.9-3.34h-1.31V440h1.14v-3.55l1.77 2.99h.54l1.8-2.98V440h1.13zm3.736-5.34c-1.49 0-2.44.67-2.44 1.92 0 .82.43 1.38 1.19 1.64l-1.26 1.78h1.34l1.09-1.61h1.41V440h1.12v-5.34h-2.45zm.04 1.05h1.29v1.81h-1.33c-.77 0-1.17-.28-1.17-.9 0-.64.44-.91 1.21-.91zm-73.962 13.51c.51-.22.82-.63.82-1.18 0-.88-.78-1.38-2.08-1.38h-2.61V452h2.72c1.44 0 2.14-.56 2.14-1.5 0-.65-.33-1.08-.99-1.28zm-2.68-1.65h1.31c.64 0 .97.21.97.65 0 .44-.33.67-.97.67h-1.31v-1.32zm1.43 3.52h-1.43v-1.37h1.47c.68 0 .99.23.99.7 0 .46-.36.67-1.03.67zm6.171-2.67l-1.35-.01v-1.75h-1.25V452l2.42.01c1.46.01 2.28-.66 2.28-1.83 0-1.11-.73-1.76-2.1-1.76zm2.79 3.58h1.25v-5.34h-1.25V452zm-3.08-.91l-1.06-.01v-1.81l1.06.01c.74.01 1.13.27 1.13.88 0 .62-.4.94-1.13.93zm6.011-4.43V452h1.25v-4.28h2.63V452h1.24v-5.34h-5.12zm9.186 5.41c1.66 0 2.85-1.14 2.85-2.74 0-1.6-1.19-2.73-2.85-2.73-1.64 0-2.84 1.13-2.84 2.73s1.2 2.74 2.84 2.74zm0-1.07c-.9 0-1.58-.65-1.58-1.67s.68-1.67 1.58-1.67c.91 0 1.59.65 1.59 1.67s-.68 1.67-1.59 1.67zm4.547-4.34l-.09 2.06c-.06 1.11-.09 2.25-.91 2.25-.07 0-.15-.01-.24-.03l-.06 1.05c.26.07.49.11.69.11 1.26 0 1.54-1.42 1.63-3.32l.05-1.06h2V452h1.25v-5.34h-4.32zm6.003 5.34h1.25v-2.11h2.69V452h1.25v-5.34h-1.25v2.17h-2.69v-2.17h-1.25V452zm11.865-2.64c0-1.67-1.14-2.76-2.7-2.76-1.59 0-2.76 1.14-2.76 2.73s1.16 2.74 2.95 2.74c.92 0 1.67-.3 2.15-.87l-.67-.77c-.38.39-.85.58-1.45.58-.93 0-1.58-.5-1.73-1.28h4.19c.01-.12.02-.27.02-.37zm-2.7-1.76c.82 0 1.41.53 1.51 1.3h-3.03c.12-.78.71-1.3 1.52-1.3zm4.067 4.4h1.25v-2.11h2.69V452h1.25v-5.34h-1.25v2.17h-2.69v-2.17h-1.25V452zm6.866 0h1.15l2.94-3.52V452h1.25v-5.34h-1.14l-2.95 3.52v-3.52h-1.25V452zm9.081-5.34c-1.49 0-2.44.67-2.44 1.92 0 .82.43 1.38 1.19 1.64l-1.26 1.78h1.34l1.09-1.61h1.41V452h1.12v-5.34h-2.45zm.04 1.05h1.29v1.81h-1.33c-.77 0-1.17-.28-1.17-.9 0-.64.44-.91 1.21-.91zm10.045 1.51c.55-.22.9-.65.9-1.17 0-.88-1-1.47-2.37-1.47-.7 0-1.39.15-2.12.49l.32.92c.59-.26 1.15-.39 1.69-.39.75 0 1.2.24 1.2.63s-.37.61-1 .61h-.94v.84h1.04c.67 0 1.05.23 1.05.65 0 .46-.51.73-1.34.73-.66 0-1.34-.17-1.86-.46l-.36.93c.64.36 1.46.56 2.28.56 1.49 0 2.56-.67 2.56-1.66 0-.59-.39-1.02-1.05-1.21zm4.328-2.62c-.86 0-1.69.22-2.26.66l.49.91c.4-.33 1.02-.53 1.62-.53.89 0 1.33.43 1.33 1.16v.08h-1.38c-1.62 0-2.22.7-2.22 1.59 0 .93.77 1.6 1.99 1.6.8 0 1.38-.26 1.68-.72v.65h1.18v-3.13c0-1.54-.89-2.27-2.43-2.27zm-.17 4.56c-.64 0-1.02-.29-1.02-.74 0-.39.23-.71 1.08-.71h1.29v.62c-.21.55-.74.83-1.35.83zm9.056-.22v-4.28h-4.4l-.07 1.83c-.06 1.25-.19 2.42-.94 2.45h-.25v2.25h1.16V452h4.12v1.19h1.17v-2.25h-.79zm-3.33-2.36l.03-.86h2.05v3.22h-2.63c.43-.41.51-1.36.55-2.36zm7.227-1.98c-.86 0-1.69.22-2.26.66l.49.91c.4-.33 1.02-.53 1.62-.53.89 0 1.33.43 1.33 1.16v.08h-1.38c-1.62 0-2.22.7-2.22 1.59 0 .93.77 1.6 1.99 1.6.8 0 1.38-.26 1.68-.72v.65h1.18v-3.13c0-1.54-.89-2.27-2.43-2.27zm-.17 4.56c-.64 0-1.02-.29-1.02-.74 0-.39.23-.71 1.08-.71h1.29v.62c-.21.55-.74.83-1.35.83zm7.427-4.5V449c-.43.2-.9.3-1.34.3-.72 0-1.15-.31-1.15-1.01v-1.63h-1.25v1.71c0 1.33.78 1.93 2.13 1.93a3.7 3.7 0 001.61-.37V452h1.25v-5.34h-1.25zm2.931 5.34h1.15l2.94-3.52V452h1.25v-5.34h-1.14l-2.95 3.52v-3.52h-1.25V452z" fill="#fff"/></g><g filter="url(#filter5_d_94:310)"><path fill="#fff" d="M-214 100h675v46h-675z"/></g><g filter="url(#filter6_d_94:310)"><rect x="-55" y="183" width="111" height="63" rx="3" fill="#fff"/></g><path d="M12.992 200h1.028l-1.736-2.527 1.673-2.373h-.966l-1.406 2.051h-.939V195.1H9.75v4.9h.896v-2.065h.91L12.992 200zm3.166.049c1.162 0 1.995-.798 1.995-1.918 0-1.12-.833-1.911-1.995-1.911-1.148 0-1.988.791-1.988 1.911s.84 1.918 1.988 1.918zm0-.749c-.63 0-1.106-.455-1.106-1.169s.476-1.169 1.106-1.169c.637 0 1.113.455 1.113 1.169s-.476 1.169-1.113 1.169zm7.326.7l-.007-3.738h-.82l-1.392 2.338-1.33-2.338h-.917V200h.798v-2.485l1.239 2.093h.378l1.26-2.086V200h.79zm2.566-3.78c-.602 0-1.183.154-1.582.462l.343.637c.28-.231.714-.371 1.134-.371.623 0 .931.301.931.812v.056h-.966c-1.134 0-1.554.49-1.554 1.113 0 .651.54 1.12 1.393 1.12.56 0 .966-.182 1.176-.504V200h.826v-2.191c0-1.078-.623-1.589-1.7-1.589zm-.119 3.192c-.448 0-.714-.203-.714-.518 0-.273.161-.497.756-.497h.903v.434c-.147.385-.518.581-.945.581zm2.903.588h.875v-1.477h1.883V200h.875v-3.738h-.875v1.519H29.71v-1.519h-.875V200zm8.243-.742v-2.996h-3.08l-.05 1.281c-.041.875-.132 1.694-.657 1.715h-.175v1.575h.812V200h2.884v.833h.819v-1.575h-.553zm-2.331-1.652l.02-.602h1.436v2.254H34.36c.3-.287.357-.952.385-1.652zm5.058-1.386c-.602 0-1.183.154-1.582.462l.343.637c.28-.231.714-.371 1.134-.371.623 0 .931.301.931.812v.056h-.966c-1.134 0-1.554.49-1.554 1.113 0 .651.54 1.12 1.393 1.12.56 0 .966-.182 1.176-.504V200h.826v-2.191c0-1.078-.623-1.589-1.7-1.589zm-.119 3.192c-.448 0-.714-.203-.714-.518 0-.273.161-.497.756-.497h.903v.434c-.147.385-.518.581-.945.581z" fill="#4A83FB"/><path opacity=".7" d="M31.13 217.8V229h-1.583v-9.808h-2.528V217.8h4.112zm5.65 4.464c1.6 0 2.774.304 3.52.912.758.597 1.137 1.419 1.137 2.464 0 .661-.16 1.259-.48 1.792-.31.523-.785.939-1.425 1.248-.629.299-1.407.448-2.335.448a7.48 7.48 0 01-2.289-.352c-.736-.245-1.343-.581-1.824-1.008l.736-1.264c.385.363.875.656 1.472.88a5.58 5.58 0 001.889.32c.842 0 1.493-.176 1.952-.528.469-.363.703-.853.703-1.472 0-.672-.255-1.179-.767-1.52-.513-.352-1.387-.528-2.625-.528H33.9l.593-5.856h6.32v1.392h-4.977l-.303 3.072h1.248z" fill="#303548"/><g filter="url(#filter7_d_94:310)"><rect x="71" y="183" width="111" height="63" rx="3" fill="#fff"/></g><g filter="url(#filter8_d_94:310)"><rect x="76" y="176" width="27" height="27" rx="2" fill="#FA6382"/></g><path d="M83 188v5a3 3 0 003 3h7a3 3 0 003-3v-5l-6.5-4-6.5 4z" fill="#fff"/><path d="M135.45 195.1v4.9h.896v-4.13h2.541V200h.896v-4.9h-4.333zm7.689 1.12c-.511 0-.945.175-1.239.532v-.49h-.833v5.096h.875v-1.813c.301.343.721.504 1.197.504 1.092 0 1.897-.756 1.897-1.918 0-1.155-.805-1.911-1.897-1.911zm-.098 3.08c-.63 0-1.113-.455-1.113-1.169s.483-1.169 1.113-1.169 1.106.455 1.106 1.169-.476 1.169-1.106 1.169zm4.531.749c1.162 0 1.995-.798 1.995-1.918 0-1.12-.833-1.911-1.995-1.911-1.148 0-1.988.791-1.988 1.911s.84 1.918 1.988 1.918zm0-.749c-.63 0-1.106-.455-1.106-1.169s.476-1.169 1.106-1.169c.637 0 1.113.455 1.113 1.169s-.476 1.169-1.113 1.169zm6.36-1.148c0-1.169-.798-1.932-1.89-1.932-1.113 0-1.932.798-1.932 1.911s.812 1.918 2.065 1.918c.644 0 1.169-.21 1.505-.609l-.469-.539c-.266.273-.595.406-1.015.406-.651 0-1.106-.35-1.211-.896h2.933c.007-.084.014-.189.014-.259zm-1.89-1.232c.574 0 .987.371 1.057.91h-2.121c.084-.546.497-.91 1.064-.91zm5.528 3.08h1.029l-1.449-1.939 1.358-1.799h-.938l-1.106 1.512h-.7v-1.512h-.875V200h.875v-1.498h.679L157.57 200zm4.559-3.738h-3.5v.742h1.316V200h.875v-2.996h1.309v-.742zm2.455 1.232l-.945-.007v-1.225h-.875V200l1.694.007c1.022.007 1.596-.462 1.596-1.281 0-.777-.511-1.232-1.47-1.232zm1.953 2.506h.875v-3.738h-.875V200zm-2.156-.637l-.742-.007v-1.267l.742.007c.518.007.791.189.791.616 0 .434-.28.658-.791.651z" fill="#FA6382"/><path opacity=".7" d="M152.343 227.608V229h-8.048v-1.088l4.56-4.4c.555-.533.928-.992 1.12-1.376.192-.395.288-.789.288-1.184 0-.587-.208-1.04-.624-1.36-.405-.331-.992-.496-1.76-.496-1.237 0-2.192.405-2.864 1.216l-1.088-.944c.437-.533 1.008-.949 1.712-1.248.715-.299 1.509-.448 2.384-.448 1.173 0 2.107.283 2.8.848.693.555 1.04 1.312 1.04 2.272a3.87 3.87 0 01-.384 1.696c-.256.533-.741 1.141-1.456 1.824l-3.424 3.296h5.744zm4.788-9.808V229h-1.584v-9.808h-2.528V217.8h4.112zm10.322 9.808V229h-8.048v-1.088l4.56-4.4c.554-.533.928-.992 1.12-1.376.192-.395.288-.789.288-1.184 0-.587-.208-1.04-.624-1.36-.406-.331-.992-.496-1.76-.496-1.238 0-2.192.405-2.864 1.216l-1.088-.944c.437-.533 1.008-.949 1.712-1.248.714-.299 1.509-.448 2.384-.448 1.173 0 2.106.283 2.8.848.693.555 1.04 1.312 1.04 2.272a3.87 3.87 0 01-.384 1.696c-.256.533-.742 1.141-1.456 1.824l-3.424 3.296h5.744z" fill="#303548"/><g filter="url(#filter9_d_94:310)"><rect x="197" y="183" width="111" height="63" rx="3" fill="#fff"/></g><g filter="url(#filter10_d_94:310)"><rect x="202" y="176" width="27" height="27" rx="2" fill="#94BD59"/></g><path d="M222 190l-10-7v14l10-7z" fill="#fff"/><path d="M237.327 195.1h-4.144v.77h1.617V200h.903v-4.13h1.624v-.77zm3.804 3.052c0-1.169-.798-1.932-1.89-1.932-1.113 0-1.932.798-1.932 1.911s.812 1.918 2.065 1.918c.644 0 1.169-.21 1.505-.609l-.469-.539c-.266.273-.595.406-1.015.406-.651 0-1.106-.35-1.211-.896h2.933c.007-.084.014-.189.014-.259zm-1.89-1.232c.574 0 .987.371 1.057.91h-2.121c.084-.546.497-.91 1.064-.91zm5.528 3.08h1.029l-1.449-1.939 1.358-1.799h-.938l-1.106 1.512h-.7v-1.512h-.875V200h.875v-1.498h.679l1.127 1.498zm4.122-3.738l-1.183 2.765-1.176-2.765h-.91l1.631 3.752-.063.147c-.168.371-.35.518-.658.518a.948.948 0 01-.644-.259l-.35.644c.238.217.63.343 1.001.343.623 0 1.099-.259 1.442-1.106l1.75-4.039h-.84zm6.957 2.996v-2.996h-.875v2.996h-1.435v-2.996h-.875v2.996h-1.449v-2.996h-.875V200h5.229v.77h.819v-1.512h-.539zm1.177.742h.805l2.058-2.464V200h.875v-3.738h-.798l-2.065 2.464v-2.464h-.875V200zm8.415-1.848c0-1.169-.798-1.932-1.89-1.932-1.113 0-1.932.798-1.932 1.911s.812 1.918 2.065 1.918c.644 0 1.169-.21 1.505-.609l-.469-.539c-.266.273-.595.406-1.015.406-.651 0-1.106-.35-1.211-.896h2.933c.007-.084.014-.189.014-.259zm-1.89-1.232c.574 0 .987.371 1.057.91h-2.121c.084-.546.497-.91 1.064-.91zm7.014 1.134c.385-.154.63-.455.63-.819 0-.616-.7-1.029-1.659-1.029-.49 0-.973.105-1.484.343l.224.644a2.925 2.925 0 011.183-.273c.525 0 .84.168.84.441s-.259.427-.7.427h-.658v.588h.728c.469 0 .735.161.735.455 0 .322-.357.511-.938.511-.462 0-.938-.119-1.302-.322l-.252.651c.448.252 1.022.392 1.596.392 1.043 0 1.792-.469 1.792-1.162 0-.413-.273-.714-.735-.847zm3.029-1.834c-.602 0-1.183.154-1.582.462l.343.637c.28-.231.714-.371 1.134-.371.623 0 .931.301.931.812v.056h-.966c-1.134 0-1.554.49-1.554 1.113 0 .651.539 1.12 1.393 1.12.56 0 .966-.182 1.176-.504V200h.826v-2.191c0-1.078-.623-1.589-1.701-1.589zm-.119 3.192c-.448 0-.714-.203-.714-.518 0-.273.161-.497.756-.497h.903v.434c-.147.385-.518.581-.945.581zm6.34-.154v-2.996h-3.08l-.049 1.281c-.042.875-.133 1.694-.658 1.715h-.175v1.575h.812V200h2.884v.833h.819v-1.575h-.553zm-2.331-1.652l.021-.602h1.435v2.254h-1.841c.301-.287.357-.952.385-1.652zm5.059-1.386c-.602 0-1.183.154-1.582.462l.343.637c.28-.231.714-.371 1.134-.371.623 0 .931.301.931.812v.056h-.966c-1.134 0-1.554.49-1.554 1.113 0 .651.539 1.12 1.393 1.12.56 0 .966-.182 1.176-.504V200h.826v-2.191c0-1.078-.623-1.589-1.701-1.589zm-.119 3.192c-.448 0-.714-.203-.714-.518 0-.273.161-.497.756-.497h.903v.434c-.147.385-.518.581-.945.581zm5.198-3.15v1.638c-.301.14-.63.21-.938.21-.504 0-.805-.217-.805-.707v-1.141h-.875v1.197c0 .931.546 1.351 1.491 1.351a2.59 2.59 0 001.127-.259V200h.875v-3.738h-.875zm2.052 3.738h.805l2.058-2.464V200h.875v-3.738h-.798l-2.065 2.464v-2.464h-.875V200z" fill="#94BD59"/><path opacity=".7" d="M283.937 227.608V229h-8.048v-1.088l4.56-4.4c.555-.533.928-.992 1.12-1.376.192-.395.288-.789.288-1.184 0-.587-.208-1.04-.624-1.36-.405-.331-.992-.496-1.76-.496-1.237 0-2.192.405-2.864 1.216l-1.088-.944c.437-.533 1.008-.949 1.712-1.248.715-.299 1.509-.448 2.384-.448 1.173 0 2.107.283 2.8.848.693.555 1.04 1.312 1.04 2.272a3.87 3.87 0 01-.384 1.696c-.256.533-.741 1.141-1.456 1.824l-3.424 3.296h5.744zm9.429-9.808v1.088L288.838 229h-1.696l4.432-9.808h-5.12v2h-1.536V217.8h8.448z" fill="#303548"/><g filter="url(#filter11_d_94:310)"><rect x="323" y="183" width="111" height="63" rx="3" fill="#fff"/></g><g filter="url(#filter12_d_94:310)"><rect x="328" y="176" width="27" height="27" rx="2" fill="#FDB557"/></g><path d="M338.506 194.421l-3.021 1.725a2.741 2.741 0 00-.485.361c1.761 1.555 4.035 2.493 6.519 2.493 2.466 0 4.725-.924 6.481-2.458a2.655 2.655 0 00-.533-.373l-3.234-1.694a1.298 1.298 0 01-.682-1.155v-1.329c.091-.108.194-.247.306-.412a7.938 7.938 0 001.005-2.121c.415-.134.721-.535.721-1.012v-1.419c0-.312-.133-.59-.339-.786v-2.05s.403-3.191-3.725-3.191c-4.127 0-3.725 3.191-3.725 3.191v2.05a1.082 1.082 0 00-.338.786v1.419c0 .373.187.702.468.892a7.165 7.165 0 001.225 2.653v1.296c0 .472-.247.907-.643 1.134z" fill="#fff"/><path d="M367.639 195.1v4.9h.896v-4.13h2.541V200h.896v-4.9h-4.333zm7.283 4.949c1.162 0 1.995-.798 1.995-1.918 0-1.12-.833-1.911-1.995-1.911-1.148 0-1.988.791-1.988 1.911s.84 1.918 1.988 1.918zm0-.749c-.63 0-1.106-.455-1.106-1.169s.476-1.169 1.106-1.169c.637 0 1.113.455 1.113 1.169s-.476 1.169-1.113 1.169zm3.182-3.038l-.063 1.442c-.042.777-.063 1.575-.637 1.575a.785.785 0 01-.168-.021l-.042.735c.182.049.343.077.483.077.882 0 1.078-.994 1.141-2.324l.035-.742h1.4V200h.875v-3.738h-3.024zm6.079 1.232l-1.001-.007v-1.225h-.875V200l1.75.007c1.022.007 1.603-.462 1.603-1.281 0-.777-.518-1.232-1.477-1.232zm-.203 1.869l-.798-.007v-1.267l.798.007c.518.007.791.189.791.616 0 .434-.28.658-.791.651zm4.613-1.309c.385-.154.63-.455.63-.819 0-.616-.7-1.029-1.659-1.029-.49 0-.973.105-1.484.343l.224.644a2.925 2.925 0 011.183-.273c.525 0 .84.168.84.441s-.259.427-.7.427h-.658v.588h.728c.469 0 .735.161.735.455 0 .322-.357.511-.938.511-.462 0-.938-.119-1.302-.322l-.252.651c.448.252 1.022.392 1.596.392 1.043 0 1.792-.469 1.792-1.162 0-.413-.273-.714-.735-.847zm3.303 1.995c1.162 0 1.995-.798 1.995-1.918 0-1.12-.833-1.911-1.995-1.911-1.148 0-1.988.791-1.988 1.911s.84 1.918 1.988 1.918zm0-.749c-.63 0-1.106-.455-1.106-1.169s.476-1.169 1.106-1.169c.637 0 1.113.455 1.113 1.169s-.476 1.169-1.113 1.169zm5.568-1.246c.357-.154.574-.441.574-.826 0-.616-.546-.966-1.456-.966h-1.827V200h1.904c1.008 0 1.498-.392 1.498-1.05 0-.455-.231-.756-.693-.896zm-1.876-1.155h.917c.448 0 .679.147.679.455 0 .308-.231.469-.679.469h-.917v-.924zm1.001 2.464h-1.001v-.959h1.029c.476 0 .693.161.693.49 0 .322-.252.469-.721.469zm3.893-3.143c-.602 0-1.183.154-1.582.462l.343.637c.28-.231.714-.371 1.134-.371.623 0 .931.301.931.812v.056h-.966c-1.134 0-1.554.49-1.554 1.113 0 .651.539 1.12 1.393 1.12.56 0 .966-.182 1.176-.504V200h.826v-2.191c0-1.078-.623-1.589-1.701-1.589zm-.119 3.192c-.448 0-.714-.203-.714-.518 0-.273.161-.497.756-.497h.903v.434c-.147.385-.518.581-.945.581zm5.864-3.15h-3.5v.742h1.316V200h.875v-2.996h1.309v-.742zm3.97 1.89c0-1.169-.798-1.932-1.89-1.932-1.113 0-1.932.798-1.932 1.911s.812 1.918 2.065 1.918c.644 0 1.169-.21 1.505-.609l-.469-.539c-.266.273-.595.406-1.015.406-.651 0-1.106-.35-1.211-.896h2.933c.007-.084.014-.189.014-.259zm-1.89-1.232c.574 0 .987.371 1.057.91h-2.121c.084-.546.497-.91 1.064-.91zm3.164-.658l-.063 1.442c-.042.777-.063 1.575-.637 1.575a.785.785 0 01-.168-.021l-.042.735c.182.049.343.077.483.077.882 0 1.078-.994 1.141-2.324l.035-.742h1.4V200h.875v-3.738h-3.024zm4.202 3.738h.805l2.058-2.464V200h.875v-3.738h-.798l-2.065 2.464v-2.464h-.875V200z" fill="#FDB557"/><path opacity=".7" d="M351.24 217.8V229h-1.584v-9.808h-2.528V217.8h4.112zm7.026 11.328c-.885 0-1.675-.224-2.368-.672-.683-.459-1.221-1.12-1.616-1.984-.395-.864-.592-1.888-.592-3.072 0-1.184.197-2.208.592-3.072.395-.864.933-1.52 1.616-1.968.693-.459 1.483-.688 2.368-.688.875 0 1.653.229 2.336.688.693.448 1.237 1.104 1.632 1.968.395.864.592 1.888.592 3.072 0 1.184-.197 2.208-.592 3.072-.395.864-.939 1.525-1.632 1.984-.683.448-1.461.672-2.336.672zm0-1.424c.896 0 1.611-.368 2.144-1.104.544-.736.816-1.803.816-3.2 0-1.397-.272-2.464-.816-3.2-.533-.736-1.248-1.104-2.144-1.104-.907 0-1.632.368-2.176 1.104-.533.736-.8 1.803-.8 3.2 0 1.397.267 2.464.8 3.2.544.736 1.269 1.104 2.176 1.104zm10.672 1.424c-.886 0-1.675-.224-2.368-.672-.683-.459-1.222-1.12-1.616-1.984-.395-.864-.592-1.888-.592-3.072 0-1.184.197-2.208.592-3.072.394-.864.933-1.52 1.616-1.968.693-.459 1.482-.688 2.368-.688.874 0 1.653.229 2.336.688.693.448 1.237 1.104 1.632 1.968.394.864.592 1.888.592 3.072 0 1.184-.198 2.208-.592 3.072-.395.864-.939 1.525-1.632 1.984-.683.448-1.462.672-2.336.672zm0-1.424c.896 0 1.61-.368 2.144-1.104.544-.736.816-1.803.816-3.2 0-1.397-.272-2.464-.816-3.2-.534-.736-1.248-1.104-2.144-1.104-.907 0-1.632.368-2.176 1.104-.534.736-.8 1.803-.8 3.2 0 1.397.266 2.464.8 3.2.544.736 1.269 1.104 2.176 1.104zm14.969 1.424c-.886 0-1.675-.224-2.368-.672-.683-.459-1.222-1.12-1.616-1.984-.395-.864-.592-1.888-.592-3.072 0-1.184.197-2.208.592-3.072.394-.864.933-1.52 1.616-1.968.693-.459 1.482-.688 2.368-.688.874 0 1.653.229 2.336.688.693.448 1.237 1.104 1.632 1.968.394.864.592 1.888.592 3.072 0 1.184-.198 2.208-.592 3.072-.395.864-.939 1.525-1.632 1.984-.683.448-1.462.672-2.336.672zm0-1.424c.896 0 1.61-.368 2.144-1.104.544-.736.816-1.803.816-3.2 0-1.397-.272-2.464-.816-3.2-.534-.736-1.248-1.104-2.144-1.104-.907 0-1.632.368-2.176 1.104-.534.736-.8 1.803-.8 3.2 0 1.397.266 2.464.8 3.2.544.736 1.269 1.104 2.176 1.104zm10.671 1.424c-.885 0-1.674-.224-2.368-.672-.682-.459-1.221-1.12-1.616-1.984-.394-.864-.592-1.888-.592-3.072 0-1.184.198-2.208.592-3.072.395-.864.934-1.52 1.616-1.968.694-.459 1.483-.688 2.368-.688.875 0 1.654.229 2.336.688.694.448 1.238 1.104 1.632 1.968.395.864.592 1.888.592 3.072 0 1.184-.197 2.208-.592 3.072-.394.864-.938 1.525-1.632 1.984-.682.448-1.461.672-2.336.672zm0-1.424c.896 0 1.611-.368 2.144-1.104.544-.736.816-1.803.816-3.2 0-1.397-.272-2.464-.816-3.2-.533-.736-1.248-1.104-2.144-1.104-.906 0-1.632.368-2.176 1.104-.533.736-.8 1.803-.8 3.2 0 1.397.267 2.464.8 3.2.544.736 1.27 1.104 2.176 1.104zm10.672 1.424c-.885 0-1.674-.224-2.368-.672-.682-.459-1.221-1.12-1.616-1.984-.394-.864-.592-1.888-.592-3.072 0-1.184.198-2.208.592-3.072.395-.864.934-1.52 1.616-1.968.694-.459 1.483-.688 2.368-.688.875 0 1.654.229 2.336.688.694.448 1.238 1.104 1.632 1.968.395.864.592 1.888.592 3.072 0 1.184-.197 2.208-.592 3.072-.394.864-.938 1.525-1.632 1.984-.682.448-1.461.672-2.336.672zm0-1.424c.896 0 1.611-.368 2.144-1.104.544-.736.816-1.803.816-3.2 0-1.397-.272-2.464-.816-3.2-.533-.736-1.248-1.104-2.144-1.104-.906 0-1.632.368-2.176 1.104-.533.736-.8 1.803-.8 3.2 0 1.397.267 2.464.8 3.2.544.736 1.27 1.104 2.176 1.104zm13.678-3.664h-2.912v2.864h-1.344v-2.864h-2.912v-1.264h2.912v-2.88h1.344v2.88h2.912v1.264z" fill="#303548"/><g filter="url(#filter13_d_94:310)"><rect x="-55" y="264" width="321" height="208" rx="3" fill="#fff"/></g><path d="M244.489 284.336l-3.688 1.432v.864l3.688 1.432v-.832l-2.76-1.032 2.76-1.032v-.832z" fill="#303548"/><path opacity=".1" d="M-25 310h270m-270 25h270m-270 24h270m-270 24h270m-270 24h270" stroke="#000" stroke-dasharray="3 3"/><path opacity=".3" d="M-25 432h270" stroke="#000" stroke-dasharray="3 3"/><path d="M11.854 439.706c0-.318.15-.468.427-.468.143 0 .275.042.377.114l.247-.678c-.175-.12-.45-.174-.714-.174-.805 0-1.248.474-1.248 1.2v.144h-.498v.72h.498V443h.936v-2.436h.803v-.72h-.828v-.138zm4.416 1.692c0-1.038-.732-1.674-1.68-1.674-.984 0-1.722.696-1.722 1.662 0 .96.726 1.662 1.842 1.662.582 0 1.032-.18 1.332-.522l-.498-.54c-.222.21-.468.312-.81.312-.492 0-.834-.246-.924-.648h2.442c.006-.078.018-.18.018-.252zm-1.674-.966c.42 0 .726.264.792.672h-1.59c.066-.414.372-.672.798-.672zm4.205-.708c-.402 0-.732.126-.972.39v-1.566h-.936V443h.894v-.372c.234.282.582.42 1.014.42.906 0 1.608-.648 1.608-1.662 0-1.014-.702-1.662-1.608-1.662zm-.162 2.556c-.468 0-.822-.336-.822-.894s.354-.894.822-.894c.468 0 .822.336.822.894s-.354.894-.822.894zm18.137-2.556c-.486 0-.906.198-1.164.528-.228-.354-.612-.528-1.062-.528-.414 0-.774.144-1.014.42v-.372h-.894V443h.936v-1.62c0-.576.294-.846.708-.846.39 0 .612.24.612.762V443h.936v-1.62c0-.576.294-.846.714-.846.378 0 .612.24.612.762V443h.936v-1.848c0-.984-.552-1.428-1.32-1.428zm3.46 0c-.515 0-1.037.138-1.391.39l.336.654c.234-.186.588-.3.93-.3.504 0 .744.234.744.636h-.744c-.984 0-1.386.396-1.386.966 0 .558.45.978 1.206.978.474 0 .81-.156.984-.45V443h.876v-1.842c0-.978-.57-1.434-1.554-1.434zm-.071 2.694c-.33 0-.528-.156-.528-.39 0-.216.138-.378.576-.378h.642v.33c-.108.294-.378.438-.69.438zm3.367-2.22v-.426h-.894V443h.936v-1.524c0-.618.342-.9.858-.9.072 0 .132.006.21.012v-.864c-.498 0-.882.162-1.11.474zm17.488-.474c-.517 0-1.039.138-1.393.39l.336.654c.234-.186.588-.3.93-.3.504 0 .744.234.744.636h-.744c-.984 0-1.386.396-1.386.966 0 .558.45.978 1.206.978.474 0 .81-.156.984-.45V443h.876v-1.842c0-.978-.57-1.434-1.554-1.434zm-.073 2.694c-.33 0-.528-.156-.528-.39 0-.216.138-.378.576-.378h.642v.33c-.108.294-.378.438-.69.438zm4.381-2.694c-.432 0-.78.138-1.014.42v-.372h-.894v4.392h.936v-1.506c.24.264.57.39.972.39.906 0 1.608-.648 1.608-1.662 0-1.014-.702-1.662-1.608-1.662zm-.162 2.556c-.468 0-.822-.336-.822-.894s.354-.894.822-.894c.468 0 .822.336.822.894s-.354.894-.822.894zm3.29-2.082v-.426h-.893V443h.936v-1.524c0-.618.342-.9.858-.9.072 0 .132.006.21.012v-.864c-.498 0-.882.162-1.11.474zm16.348-.474c-.486 0-.906.198-1.164.528-.228-.354-.612-.528-1.062-.528-.414 0-.774.144-1.014.42v-.372h-.894V443h.936v-1.62c0-.576.294-.846.708-.846.39 0 .612.24.612.762V443h.936v-1.62c0-.576.294-.846.714-.846.378 0 .612.24.612.762V443h.936v-1.848c0-.984-.552-1.428-1.32-1.428zm3.461 0c-.516 0-1.038.138-1.392.39l.336.654c.234-.186.588-.3.93-.3.504 0 .744.234.744.636h-.744c-.984 0-1.386.396-1.386.966 0 .558.45.978 1.206.978.474 0 .81-.156.984-.45V443h.876v-1.842c0-.978-.57-1.434-1.554-1.434zm-.072 2.694c-.33 0-.528-.156-.528-.39 0-.216.138-.378.576-.378h.642v.33c-.108.294-.378.438-.69.438zm4.719-2.646l-.912 2.19-.906-2.19h-.966l1.398 3.252-.012.03c-.126.288-.27.402-.528.402a.83.83 0 01-.528-.204l-.342.666c.21.186.57.294.9.294.582 0 1.026-.234 1.338-1.014l1.458-3.426h-.9zm16.476-.45c.348 0 .582-.228.582-.54 0-.288-.234-.504-.582-.504s-.582.228-.582.522c0 .294.234.522.582.522zm-.75 4.89c.78 0 1.218-.474 1.218-1.218v-3.222h-.936V443c0 .318-.15.468-.384.468a.686.686 0 01-.396-.114l-.252.678c.18.126.462.18.75.18zm4.396-4.44v1.596c0 .594-.312.87-.744.87-.414 0-.654-.24-.654-.78v-1.686h-.936v1.824c0 .996.57 1.452 1.38 1.452.396 0 .756-.15 1.002-.432V443h.888v-3.228h-.936zm3.765-.048c-.438 0-.816.15-1.068.426v-.378h-.894V443h.936v-1.596c0-.594.324-.87.774-.87.414 0 .654.24.654.762V443h.936v-1.848c0-.984-.576-1.428-1.338-1.428zm16.261-.402c.348 0 .582-.228.582-.54 0-.288-.234-.504-.582-.504s-.582.228-.582.522c0 .294.234.522.582.522zm-.75 4.89c.78 0 1.218-.474 1.218-1.218v-3.222h-.936V443c0 .318-.15.468-.384.468a.686.686 0 01-.396-.114l-.252.678c.18.126.462.18.75.18zm4.396-4.44v1.596c0 .594-.312.87-.744.87-.414 0-.654-.24-.654-.78v-1.686h-.936v1.824c0 .996.57 1.452 1.38 1.452.396 0 .756-.15 1.002-.432V443h.888v-3.228h-.936zm1.803 3.228h.936v-4.452h-.936V443zm19.713-3.276c-.516 0-1.038.138-1.392.39l.336.654c.234-.186.588-.3.93-.3.504 0 .744.234.744.636h-.744c-.984 0-1.386.396-1.386.966 0 .558.45.978 1.206.978.474 0 .81-.156.984-.45V443h.876v-1.842c0-.978-.57-1.434-1.554-1.434zm-.072 2.694c-.33 0-.528-.156-.528-.39 0-.216.138-.378.576-.378h.642v.33c-.108.294-.378.438-.69.438zm4.789-2.646v1.596c0 .594-.312.87-.744.87-.414 0-.654-.24-.654-.78v-1.686h-.936v1.824c0 .996.57 1.452 1.38 1.452.396 0 .756-.15 1.002-.432V443h.888v-3.228h-.936zm4.246 0v.414c-.246-.312-.618-.462-1.068-.462-.894 0-1.614.618-1.614 1.56 0 .942.72 1.56 1.614 1.56.42 0 .774-.132 1.02-.402v.138c0 .582-.288.882-.948.882-.414 0-.864-.144-1.14-.366l-.372.672c.378.294.972.444 1.584.444 1.164 0 1.812-.552 1.812-1.752v-2.688h-.888zm-.882 2.304c-.492 0-.852-.318-.852-.792 0-.474.36-.792.852-.792s.846.318.846.792c0 .474-.354.792-.846.792zm14.657.972c.966 0 1.524-.426 1.524-1.026 0-1.272-1.95-.738-1.95-1.29 0-.168.18-.3.6-.3.294 0 .612.06.93.24l.312-.666c-.306-.18-.798-.282-1.242-.282-.942 0-1.494.432-1.494 1.044 0 1.29 1.95.75 1.95 1.278 0 .18-.162.294-.594.294-.396 0-.834-.126-1.122-.312l-.312.672c.3.198.852.348 1.398.348zm5.264-1.65c0-1.038-.732-1.674-1.68-1.674-.984 0-1.722.696-1.722 1.662 0 .96.726 1.662 1.842 1.662.582 0 1.032-.18 1.332-.522l-.498-.54c-.222.21-.468.312-.81.312-.492 0-.834-.246-.924-.648h2.442c.006-.078.018-.18.018-.252zm-1.674-.966c.42 0 .726.264.792.672h-1.59c.066-.414.372-.672.798-.672zm4.205-.708c-.432 0-.78.138-1.014.42v-.372h-.894v4.392h.936v-1.506c.24.264.57.39.972.39.906 0 1.608-.648 1.608-1.662 0-1.014-.702-1.662-1.608-1.662zm-.162 2.556c-.468 0-.822-.336-.822-.894s.354-.894.822-.894c.468 0 .822.336.822.894s-.354.894-.822.894zm19.81.768c1.026 0 1.77-.69 1.77-1.662s-.744-1.662-1.77-1.662-1.776.69-1.776 1.662.75 1.662 1.776 1.662zm0-.768c-.468 0-.828-.336-.828-.894s.36-.894.828-.894c.468 0 .822.336.822.894s-.354.894-.822.894zm3.955.768c.678 0 1.212-.3 1.446-.816l-.726-.396c-.174.312-.432.444-.726.444-.474 0-.846-.33-.846-.894 0-.564.372-.894.846-.894.294 0 .552.138.726.444l.726-.39c-.234-.528-.768-.822-1.446-.822-1.05 0-1.8.69-1.8 1.662s.75 1.662 1.8 1.662zm3.862-.864a.63.63 0 01-.378.12c-.252 0-.402-.15-.402-.426v-1.314h.804v-.72h-.804v-.786h-.936v.786h-.498v.72h.498v1.326c0 .768.444 1.158 1.206 1.158.288 0 .57-.066.762-.204l-.252-.66zm14.367-2.46c-.438 0-.816.15-1.068.426v-.378h-.894V443h.936v-1.596c0-.594.324-.87.774-.87.414 0 .654.24.654.762V443h.936v-1.848c0-.984-.576-1.428-1.338-1.428zm3.758 3.324c1.026 0 1.77-.69 1.77-1.662s-.744-1.662-1.77-1.662-1.776.69-1.776 1.662.75 1.662 1.776 1.662zm0-.768c-.468 0-.828-.336-.828-.894s.36-.894.828-.894c.468 0 .822.336.822.894s-.354.894-.822.894zm4.612-2.508l-.924 2.196-.894-2.196h-.966l1.356 3.228h.966l1.362-3.228h-.9z" fill="#303548"/><path opacity=".2" fill="#C4C4C4" d="M-11 297h26v135h-26zm49 0h26v135H38zm49 0h26v135H87zm49 0h26v135h-26zm49 0h26v135h-26zm49 0h11v135h-11z"/><circle cx="15.5" cy="383.5" r="2.5" fill="#2F80ED"/><circle cx="38.5" cy="407.5" r="2.5" fill="#2F80ED"/><circle cx="64.5" cy="389.5" r="2.5" fill="#2F80ED"/><circle cx="87.5" cy="421.5" r="2.5" fill="#2F80ED"/><circle cx="112.5" cy="359.5" r="2.5" fill="#2F80ED"/><circle cx="185.5" cy="359.5" r="2.5" fill="#2F80ED"/><circle cx="138.5" cy="312.5" r="2.5" fill="#2F80ED"/><circle cx="162.5" cy="406.5" r="2.5" fill="#2F80ED"/><path d="M-11.5 407.5C1 407.5 1 382 14 382s14 25.5 25.5 25.5S54 390 65 390s12.5 32 22.5 32 12-62 24.5-62 16-47.5 26.5-47.5 12 93.5 24 93.5 14.5-46 23-46" stroke="#2F80ED" stroke-width="1.4"/><path d="M-10.12 126l-.008-5.6h-.856l-2.184 3.712-2.224-3.712h-.856v5.6h.992v-3.664l1.84 3.024h.464l1.84-3.072.008 3.712h.984zm5.433-2.112c0-1.336-.912-2.208-2.16-2.208-1.272 0-2.208.912-2.208 2.184 0 1.272.928 2.192 2.36 2.192.736 0 1.336-.24 1.72-.696l-.536-.616c-.304.312-.68.464-1.16.464-.744 0-1.264-.4-1.384-1.024h3.352c.008-.096.016-.216.016-.296zm-2.16-1.408c.656 0 1.128.424 1.208 1.04h-2.424c.096-.624.568-1.04 1.216-1.04zm6.408-.752v.568c-.352-.424-.88-.616-1.48-.616-1.224 0-2.16.816-2.16 2.056 0 1.24.936 2.072 2.16 2.072.576 0 1.08-.184 1.432-.568v.224c0 .864-.416 1.296-1.36 1.296-.592 0-1.2-.2-1.576-.512l-.448.752c.488.4 1.28.608 2.08.608 1.496 0 2.304-.704 2.304-2.256v-3.624h-.952zm-1.328 3.232c-.76 0-1.304-.496-1.304-1.224 0-.72.544-1.208 1.304-1.208.752 0 1.296.488 1.296 1.208 0 .728-.544 1.224-1.296 1.224zm5.227-3.28c-.688 0-1.352.176-1.808.528l.392.728c.32-.264.816-.424 1.296-.424.712 0 1.064.344 1.064.928v.064H3.3c-1.296 0-1.776.56-1.776 1.272 0 .744.616 1.28 1.592 1.28.64 0 1.104-.208 1.344-.576v.52h.944v-2.504c0-1.232-.712-1.816-1.944-1.816zm-.136 3.648c-.512 0-.816-.232-.816-.592 0-.312.184-.568.864-.568h1.032v.496c-.168.44-.592.664-1.08.664zm382.148-2.24c.52-.224.824-.648.824-1.248 0-.928-.752-1.44-2-1.44h-2.504v5.6h2.656c1.392 0 2.12-.584 2.12-1.552 0-.704-.392-1.168-1.096-1.36zm-2.656-1.888h1.392c.672 0 1.032.272 1.032.8 0 .52-.36.792-1.032.792h-1.392V121.2zm1.6 4h-1.6v-1.648h1.6c.72 0 1.104.256 1.104.816 0 .56-.384.832-1.104.832zm4.817-3.52c-.688 0-1.352.176-1.808.528l.392.728c.32-.264.816-.424 1.296-.424.712 0 1.064.344 1.064.928v.064h-1.104c-1.296 0-1.776.56-1.776 1.272 0 .744.616 1.28 1.592 1.28.64 0 1.104-.208 1.344-.576v.52h.944v-2.504c0-1.232-.712-1.816-1.944-1.816zm-.136 3.648c-.512 0-.816-.232-.816-.592 0-.312.184-.568.864-.568h1.032v.496c-.168.44-.592.664-1.08.664zm7.245-.176v-3.424h-3.52l-.056 1.464c-.048 1-.152 1.936-.752 1.96h-.2v1.8h.928V126h3.296v.952h.936v-1.8h-.632zm-2.664-1.888l.024-.688h1.64v2.576h-2.104c.344-.328.408-1.088.44-1.888zm4.189 2.736h.92l2.352-2.816V126h1v-4.272h-.912l-2.36 2.816v-2.816h-1V126zm10.722 0l-.008-4.272h-.936l-1.592 2.672-1.52-2.672h-1.048V126h.912v-2.84l1.416 2.392h.432l1.44-2.384V126h.904z" fill="#000"/><path d="M14.5 122l2 2 2-2m401.5 0l2 2 2-2" stroke="#000"/><rect x="349" y="111" width="25" height="25" rx="12.5" fill="url(#pattern1)"/><path stroke="#000" stroke-opacity=".05" d="M-49.5 100.5h510v414h-510z"/></g></g><defs><filter id="filter0_f_94:310" x="-59" y="560" width="643" height="36" filterUnits="userSpaceOnUse" color-interpolation-filters="sRGB"><feFlood flood-opacity="0" result="BackgroundImageFix"/><feBlend in="SourceGraphic" in2="BackgroundImageFix" result="shape"/><feGaussianBlur stdDeviation="4.5" result="effect1_foregroundBlur_94:310"/></filter><filter id="filter1_d_94:310" x="-119" y="0" width="798" height="655" filterUnits="userSpaceOnUse" color-interpolation-filters="sRGB"><feFlood flood-opacity="0" result="BackgroundImageFix"/><feColorMatrix in="SourceAlpha" values="0 0 0 0 0 0 0 0 0 0 0 0 0 0 0 0 0 0 127 0" result="hardAlpha"/><feOffset dy="4"/><feGaussianBlur stdDeviation="34.5"/><feColorMatrix values="0 0 0 0 0.0639757 0 0 0 0 0.100318 0 0 0 0 0.229167 0 0 0 0.106 0"/><feBlend in2="BackgroundImageFix" result="effect1_dropShadow_94:310"/><feBlend in="SourceGraphic" in2="effect1_dropShadow_94:310" result="shape"/></filter><filter id="filter2_d_94:310" x="-218" y="100" width="683" height="428" filterUnits="userSpaceOnUse" color-interpolation-filters="sRGB"><feFlood flood-opacity="0" result="BackgroundImageFix"/><feColorMatrix in="SourceAlpha" values="0 0 0 0 0 0 0 0 0 0 0 0 0 0 0 0 0 0 127 0" result="hardAlpha"/><feOffset dy="4"/><feGaussianBlur stdDeviation="2"/><feColorMatrix values="0 0 0 0 0 0 0 0 0 0 0 0 0 0 0 0 0 0 0.03 0"/><feBlend in2="BackgroundImageFix" result="effect1_dropShadow_94:310"/><feBlend in="SourceGraphic" in2="effect1_dropShadow_94:310" result="shape"/></filter><filter id="filter3_d_94:310" x="277" y="263" width="164" height="104" filterUnits="userSpaceOnUse" color-interpolation-filters="sRGB"><feFlood flood-opacity="0" result="BackgroundImageFix"/><feColorMatrix in="SourceAlpha" values="0 0 0 0 0 0 0 0 0 0 0 0 0 0 0 0 0 0 127 0" result="hardAlpha"/><feOffset dy="4"/><feGaussianBlur stdDeviation="2"/><feColorMatrix values="0 0 0 0 0 0 0 0 0 0 0 0 0 0 0 0 0 0 0.03 0"/><feBlend in2="BackgroundImageFix" result="effect1_dropShadow_94:310"/><feBlend in="SourceGraphic" in2="effect1_dropShadow_94:310" result="shape"/></filter><filter id="filter4_d_94:310" x="277" y="376" width="164" height="104" filterUnits="userSpaceOnUse" color-interpolation-filters="sRGB"><feFlood flood-opacity="0" result="BackgroundImageFix"/><feColorMatrix in="SourceAlpha" values="0 0 0 0 0 0 0 0 0 0 0 0 0 0 0 0 0 0 127 0" result="hardAlpha"/><feOffset dy="4"/><feGaussianBlur stdDeviation="2"/><feColorMatrix values="0 0 0 0 0 0 0 0 0 0 0 0 0 0 0 0 0 0 0.03 0"/><feBlend in2="BackgroundImageFix" result="effect1_dropShadow_94:310"/><feBlend in="SourceGraphic" in2="effect1_dropShadow_94:310" result="shape"/></filter><filter id="filter5_d_94:310" x="-218" y="100" width="683" height="54" filterUnits="userSpaceOnUse" color-interpolation-filters="sRGB"><feFlood flood-opacity="0" result="BackgroundImageFix"/><feColorMatrix in="SourceAlpha" values="0 0 0 0 0 0 0 0 0 0 0 0 0 0 0 0 0 0 127 0" result="hardAlpha"/><feOffset dy="4"/><feGaussianBlur stdDeviation="2"/><feColorMatrix values="0 0 0 0 0 0 0 0 0 0 0 0 0 0 0 0 0 0 0.03 0"/><feBlend in2="BackgroundImageFix" result="effect1_dropShadow_94:310"/><feBlend in="SourceGraphic" in2="effect1_dropShadow_94:310" result="shape"/></filter><filter id="filter6_d_94:310" x="-59" y="183" width="119" height="71" filterUnits="userSpaceOnUse" color-interpolation-filters="sRGB"><feFlood flood-opacity="0" result="BackgroundImageFix"/><feColorMatrix in="SourceAlpha" values="0 0 0 0 0 0 0 0 0 0 0 0 0 0 0 0 0 0 127 0" result="hardAlpha"/><feOffset dy="4"/><feGaussianBlur stdDeviation="2"/><feColorMatrix values="0 0 0 0 0 0 0 0 0 0 0 0 0 0 0 0 0 0 0.03 0"/><feBlend in2="BackgroundImageFix" result="effect1_dropShadow_94:310"/><feBlend in="SourceGraphic" in2="effect1_dropShadow_94:310" result="shape"/></filter><filter id="filter7_d_94:310" x="67" y="183" width="119" height="71" filterUnits="userSpaceOnUse" color-interpolation-filters="sRGB"><feFlood flood-opacity="0" result="BackgroundImageFix"/><feColorMatrix in="SourceAlpha" values="0 0 0 0 0 0 0 0 0 0 0 0 0 0 0 0 0 0 127 0" result="hardAlpha"/><feOffset dy="4"/><feGaussianBlur stdDeviation="2"/><feColorMatrix values="0 0 0 0 0 0 0 0 0 0 0 0 0 0 0 0 0 0 0.03 0"/><feBlend in2="BackgroundImageFix" result="effect1_dropShadow_94:310"/><feBlend in="SourceGraphic" in2="effect1_dropShadow_94:310" result="shape"/></filter><filter id="filter8_d_94:310" x="72" y="176" width="35" height="35" filterUnits="userSpaceOnUse" color-interpolation-filters="sRGB"><feFlood flood-opacity="0" result="BackgroundImageFix"/><feColorMatrix in="SourceAlpha" values="0 0 0 0 0 0 0 0 0 0 0 0 0 0 0 0 0 0 127 0" result="hardAlpha"/><feOffset dy="4"/><feGaussianBlur stdDeviation="2"/><feColorMatrix values="0 0 0 0 0 0 0 0 0 0 0 0 0 0 0 0 0 0 0.03 0"/><feBlend in2="BackgroundImageFix" result="effect1_dropShadow_94:310"/><feBlend in="SourceGraphic" in2="effect1_dropShadow_94:310" result="shape"/></filter><filter id="filter9_d_94:310" x="193" y="183" width="119" height="71" filterUnits="userSpaceOnUse" color-interpolation-filters="sRGB"><feFlood flood-opacity="0" result="BackgroundImageFix"/><feColorMatrix in="SourceAlpha" values="0 0 0 0 0 0 0 0 0 0 0 0 0 0 0 0 0 0 127 0" result="hardAlpha"/><feOffset dy="4"/><feGaussianBlur stdDeviation="2"/><feColorMatrix values="0 0 0 0 0 0 0 0 0 0 0 0 0 0 0 0 0 0 0.03 0"/><feBlend in2="BackgroundImageFix" result="effect1_dropShadow_94:310"/><feBlend in="SourceGraphic" in2="effect1_dropShadow_94:310" result="shape"/></filter><filter id="filter10_d_94:310" x="198" y="176" width="35" height="35" filterUnits="userSpaceOnUse" color-interpolation-filters="sRGB"><feFlood flood-opacity="0" result="BackgroundImageFix"/><feColorMatrix in="SourceAlpha" values="0 0 0 0 0 0 0 0 0 0 0 0 0 0 0 0 0 0 127 0" result="hardAlpha"/><feOffset dy="4"/><feGaussianBlur stdDeviation="2"/><feColorMatrix values="0 0 0 0 0 0 0 0 0 0 0 0 0 0 0 0 0 0 0.03 0"/><feBlend in2="BackgroundImageFix" result="effect1_dropShadow_94:310"/><feBlend in="SourceGraphic" in2="effect1_dropShadow_94:310" result="shape"/></filter><filter id="filter11_d_94:310" x="319" y="183" width="119" height="71" filterUnits="userSpaceOnUse" color-interpolation-filters="sRGB"><feFlood flood-opacity="0" result="BackgroundImageFix"/><feColorMatrix in="SourceAlpha" values="0 0 0 0 0 0 0 0 0 0 0 0 0 0 0 0 0 0 127 0" result="hardAlpha"/><feOffset dy="4"/><feGaussianBlur stdDeviation="2"/><feColorMatrix values="0 0 0 0 0 0 0 0 0 0 0 0 0 0 0 0 0 0 0.03 0"/><feBlend in2="BackgroundImageFix" result="effect1_dropShadow_94:310"/><feBlend in="SourceGraphic" in2="effect1_dropShadow_94:310" result="shape"/></filter><filter id="filter12_d_94:310" x="324" y="176" width="35" height="35" filterUnits="userSpaceOnUse" color-interpolation-filters="sRGB"><feFlood flood-opacity="0" result="BackgroundImageFix"/><feColorMatrix in="SourceAlpha" values="0 0 0 0 0 0 0 0 0 0 0 0 0 0 0 0 0 0 127 0" result="hardAlpha"/><feOffset dy="4"/><feGaussianBlur stdDeviation="2"/><feColorMatrix values="0 0 0 0 0 0 0 0 0 0 0 0 0 0 0 0 0 0 0.03 0"/><feBlend in2="BackgroundImageFix" result="effect1_dropShadow_94:310"/><feBlend in="SourceGraphic" in2="effect1_dropShadow_94:310" result="shape"/></filter><filter id="filter13_d_94:310" x="-59" y="264" width="329" height="216" filterUnits="userSpaceOnUse" color-interpolation-filters="sRGB"><feFlood flood-opacity="0" result="BackgroundImageFix"/><feColorMatrix in="SourceAlpha" values="0 0 0 0 0 0 0 0 0 0 0 0 0 0 0 0 0 0 127 0" result="hardAlpha"/><feOffset dy="4"/><feGaussianBlur stdDeviation="2"/><feColorMatrix values="0 0 0 0 0 0 0 0 0 0 0 0 0 0 0 0 0 0 0.03 0"/><feBlend in2="BackgroundImageFix" result="effect1_dropShadow_94:310"/><feBlend in="SourceGraphic" in2="effect1_dropShadow_94:310" result="shape"/></filter><linearGradient id="paint0_linear_94:310" x1="223.5" y1="650.5" x2="245.5" y2="207.5" gradientUnits="userSpaceOnUse"><stop/><stop offset="1" stop-color="#fff" stop-opacity="0"/></linearGradient><linearGradient id="paint1_linear_94:310" x1="280" y1="582" x2="280" y2="547" gradientUnits="userSpaceOnUse"><stop/><stop offset=".195" stop-color="#848484" stop-opacity=".483"/><stop offset="1" stop-color="#fff" stop-opacity="0"/></linearGradient><linearGradient id="paint2_linear_94:310" x1="280" y1="599" x2="280" y2="547" gradientUnits="userSpaceOnUse"><stop/><stop offset="1" stop-color="#fff" stop-opacity="0"/></linearGradient><clipPath id="clip0_94:310"><path fill="#fff" transform="translate(281 263)" d="M0 0h156v96H0z"/></clipPath><clipPath id="clip1_94:310"><path fill="#fff" transform="translate(281 376)" d="M0 0h156v96H0z"/></clipPath><pattern id="pattern0" patternContentUnits="objectBoundingBox" width="1" height="1"><use xlink:href="#image0_94:310" transform="matrix(.0008 0 0 .00135 0 -.025)"/></pattern><pattern id="pattern1" patternContentUnits="objectBoundingBox" width="1" height="1"><use xlink:href="#image1_94:310" transform="translate(-.256 -.338) scale(.0013)"/></pattern></defs></svg>