<svg width="1060" height="839" fill="none" xmlns="http://www.w3.org/2000/svg"><g clip-path="url(#clip0_94:301)"><path fill-rule="evenodd" clip-rule="evenodd" d="M635.24-100.164c26.938 4.81 54.271 9.69 83.436 18.996l1.734.565c41.386 13.465 258.638 84.15 323.63 341.063 65.97 260.746-96.551 485.053-334.131 545.157-237.579 60.104-498.806-72.7-563.023-326.539C82.669 225.239 251.176 56.973 282.939 29.067c9.207-8.529 17.899-16.153 26.368-23.582 25.908-22.724 49.736-43.624 79.861-83.013 18.61-25.638 32.467-58.421 22.153-128.066 46.226 33.457 101.078 71.905 136.868 84.838 29.747 10.36 58.173 15.435 87.051 20.592zM379.917 583.104c-18.349-76.724 35.4-166.75 125.825-190.978 67.12-17.598 132.161 7.37 186.212 28.119 38.62 14.825 71.629 27.496 95.775 20.946 24.704-6.783 54.807-40.712 84.524-74.208 29.256-32.976 58.139-65.531 81.129-71.347 49.278-12.466 76.008 35.212 83.718 65.712 7.72 30.501 11.8 88.083-2.85 128.417-14.66 40.335-26.81 57.048-54.609 61.964-16.824 2.809-47.15-15.571-79.403-35.118-37.204-22.548-76.971-46.65-101.53-41.57-25.566 5.534-58.061 38.249-94.777 75.214h-.001c-46.543 46.858-99.87 100.546-154.467 114.358-59.132 14.96-79.099 10.546-102.094 2.783-34.794-13.186-57.49-40.955-67.494-84.458l.042.166zm459.775-35.713c-13.737-4.932-30.765-1.682-46.544 2.31l.055-.014c-1.835.464-3.58.891-5.256 1.301-12.734 3.117-21.43 5.246-34.663 15.088-14.689 10.926-28.025 30.561-36.631 43.233l-.495.728c-8.585 12.637-8.413 21.236-.559 27.362 7.816 6.098 12.489-.23 25.642-18.039l.187-.253a625.88 625.88 0 003.375-4.629v-.001c11.494-15.87 20.789-28.704 52.274-36.669 33.739-8.535 43.128 1.857 53.086 12.881l.392.433.278.307.101.112c10.128 11.188 11.624 12.84 17.477 7.199a14.277 14.277 0 006.546-10.155 14.226 14.226 0 00-3.604-11.518l-.079-.109-.001-.001c-6.434-8.862-17.901-24.654-31.581-29.566zm-62.211 156.013c-63.118 15.968-95.927 10.629-119.621-.132l.138-.153c-.49-.17-.889-.321-1.231-.451l-.007-.003c-.632-.239-1.068-.404-1.519-.481-1.008-.17-2.092.104-5.595.99a23.665 23.665 0 00-13.049 10.592 14.576 14.576 0 00.717 16.805 14.586 14.586 0 004.511 3.86c53.319 28.429 124.541 7.236 176.56-11.156a220.871 220.871 0 0093.025-67.509 15.384 15.384 0 002.66-8.828 15.362 15.362 0 00-2.867-8.757c-2.003-3.726-7.472-8.575-14.597.518-16.145 19.781-56.006 48.738-119.125 64.705z" fill="url(#paint0_linear_94:301)" fill-opacity=".192"/></g><defs><linearGradient id="paint0_linear_94:301" x1="2078.24" y1="-1263.97" x2="44.182" y2="-375.764" gradientUnits="userSpaceOnUse"><stop/><stop offset="1" stop-color="#fff" stop-opacity="0"/></linearGradient><clipPath id="clip0_94:301"><path fill="#fff" transform="rotate(-14.197 -408.576 -50.88)" d="M0 0h923.603v1053.56H0z"/></clipPath></defs></svg>