<svg width="386" height="493" fill="none" xmlns="http://www.w3.org/2000/svg"><g opacity=".04" clip-path="url(#clip0_94:620)" fill="#050C33"><path d="M360.719 28.92H207.01c-13.956 0-25.282 11.326-25.282 25.281V207.91c0 13.956 11.326 25.281 25.282 25.281h73.568c-.961 40.248-10.315 72.456-28.012 96.675-13.955 19.113-35.09 34.939-63.354 47.428-12.995 5.713-18.607 21.084-12.54 33.927l18.203 38.428c5.865 12.336 20.376 17.747 32.916 12.336 33.472-14.46 61.737-32.764 84.792-55.011 28.114-27.152 47.377-57.793 57.793-91.973C380.792 280.821 386 234.203 386 175.045V54.201c0-13.955-11.327-25.281-25.281-25.281zM-53.386 461.884c33.068-14.41 61.18-32.713 84.389-54.91 28.365-27.152 47.73-57.692 58.146-91.619 10.416-33.927 15.623-80.697 15.623-140.31V54.201c0-13.955-11.325-25.281-25.28-25.281h-153.71C-88.173 28.92-99.5 40.246-99.5 54.2v153.71c0 13.956 11.326 25.281 25.28 25.281H-.65c-.96 40.248-10.315 72.456-28.012 96.675-13.955 19.113-35.09 34.939-63.354 47.428-12.994 5.713-18.607 21.084-12.539 33.927l18.151 38.327c5.866 12.336 20.479 17.798 33.018 12.336z"/></g><defs><clipPath id="clip0_94:620"><path fill="#fff" transform="translate(-107)" d="M0 0h493v493H0z"/></clipPath></defs></svg>