<svg width="927" height="820" fill="none" xmlns="http://www.w3.org/2000/svg"><path fill-rule="evenodd" clip-rule="evenodd" d="M503.24-100.388c26.939 4.81 54.271 9.69 83.436 18.996l1.734.565c41.386 13.465 258.638 84.149 323.633 341.063 65.965 260.746-96.554 485.053-334.134 545.157-237.579 60.103-498.806-72.7-563.023-326.539-64.217-253.839 104.29-422.105 136.053-450.011 9.206-8.53 17.899-16.153 26.368-23.582 25.908-22.724 49.736-43.625 79.861-83.013 18.61-25.638 32.467-58.421 22.153-128.066 46.226 33.457 101.078 71.905 136.868 84.838 29.747 10.359 58.173 15.435 87.051 20.592zM247.917 583.104c-18.349-76.724 35.4-166.75 125.825-190.978 67.12-17.598 132.161 7.37 186.212 28.119 38.62 14.825 71.629 27.496 95.775 20.946 24.704-6.783 54.807-40.713 84.524-74.208 29.256-32.976 58.139-65.531 81.128-71.347 49.277-12.466 76.007 35.212 83.724 65.712 7.716 30.501 11.797 88.083-2.859 128.417-14.657 40.335-26.806 57.048-54.605 61.964-16.824 2.809-47.15-15.571-79.403-35.118-37.204-22.548-76.971-46.65-101.53-41.57-25.566 5.534-58.061 38.249-94.778 75.214-46.543 46.858-99.87 100.546-154.467 114.358-59.132 14.96-79.099 10.546-102.095 2.783-34.793-13.186-57.489-40.955-67.493-84.458l.042.166zm459.775-35.713c-13.737-4.932-30.765-1.682-46.544 2.31l.055-.014c-1.835.464-3.58.891-5.256 1.301-12.734 3.117-21.43 5.246-34.663 15.088-14.689 10.926-28.025 30.561-36.631 43.233l-.495.728c-8.585 12.637-8.413 21.236-.559 27.362 7.816 6.098 12.489-.23 25.642-18.039l.187-.253a603.196 603.196 0 003.369-4.622l.005-.007.001-.001c11.494-15.87 20.789-28.704 52.274-36.669 33.739-8.535 43.128 1.857 53.086 12.881l.371.41.299.33.101.112c10.128 11.188 11.624 12.84 17.477 7.199a14.263 14.263 0 006.545-10.155 14.21 14.21 0 00-3.603-11.518l-.079-.109c-6.435-8.862-17.902-24.655-31.582-29.567zm-62.211 156.013c-63.118 15.968-95.927 10.629-119.621-.132l.138-.153a45.017 45.017 0 01-1.235-.452l-.003-.002c-2.043-.774-2.043-.774-7.114.509a23.665 23.665 0 00-13.049 10.592 14.576 14.576 0 00.717 16.805 14.586 14.586 0 004.511 3.86c53.319 28.429 124.541 7.236 176.56-11.156a220.871 220.871 0 0093.025-67.509 15.384 15.384 0 002.66-8.828 15.362 15.362 0 00-2.867-8.757c-2.004-3.726-7.472-8.575-14.597.518-16.145 19.781-56.006 48.737-119.125 64.705z" fill="url(#paint0_linear_94:303)" fill-opacity=".192"/><defs><linearGradient id="paint0_linear_94:303" x1="1946.24" y1="-1263.97" x2="-87.818" y2="-375.764" gradientUnits="userSpaceOnUse"><stop/><stop offset="1" stop-color="#fff" stop-opacity="0"/></linearGradient></defs></svg>