<svg xmlns="http://www.w3.org/2000/svg" width="85" height="84" fill="none"><g filter="url(#filter0_d)"><circle cx="53" cy="52" fill="#F5F5F5" r="52"/></g><g clip-path="url(#clip0)" filter="url(#filter1_d)"><g filter="url(#filter2_d)"><path d="M44.353 49.102l.001.001m.001 0s0 0 0 0m0 0a2.936 2.936 0 01-1.277-2.442V32.87c0-5.046 4.017-9.11 8.905-9.11h2.905c4.913 0 8.905 4.09 8.905 9.11v13.79a2.97 2.97 0 01-1.274 2.44c-.921.609-1.437 1.646-1.437 2.733v13.282c0 1.487.823 2.846 2.154 3.526l.003.001c1.676.842 10.46 5.372 18.576 12.174l.001.001a3.382 3.382 0 011.203 2.611v9.43a3.17 3.17 0 003.183 3.279c1.808 0 3.239-1.478 3.239-3.298V83.4c0-2.998-1.28-5.796-3.553-7.702-7.23-6.085-14.953-10.444-18.356-12.241V53.338a9.612 9.612 0 002.71-6.705V32.84c0-8.66-6.908-15.704-15.382-15.704h-2.905c-8.502 0-15.383 7.074-15.383 15.704v13.792c0 2.55.994 4.931 2.711 6.705v10.119c-3.403 1.798-11.127 6.155-18.356 12.24-2.273 1.907-3.553 4.705-3.553 7.703v9.44c0 1.82 1.431 3.297 3.239 3.297 1.808 0 3.239-1.478 3.239-3.298V83.4c0-1.016.436-1.975 1.202-2.61l.002-.002c8.112-6.798 16.89-11.327 18.573-12.172 1.338-.653 2.16-2.017 2.16-3.5V51.832a3.322 3.322 0 00-1.435-2.73z" fill="#f14d34" stroke="#f14d34"/></g></g><defs id="defs14"><filter id="filter0_d" x="0" y="0" width="106" height="106" filterUnits="userSpaceOnUse" color-interpolation-filters="sRGB"><feFlood flood-opacity="0" result="BackgroundImageFix" id="feFlood17"/><feColorMatrix in="SourceAlpha" type="matrix" values="0 0 0 0 0 0 0 0 0 0 0 0 0 0 0 0 0 0 127 0" id="feColorMatrix19"/><feOffset dy="1" id="feOffset21"/><feGaussianBlur stdDeviation=".5" id="feGaussianBlur23"/><feColorMatrix type="matrix" values="0 0 0 0 0 0 0 0 0 0 0 0 0 0 0 0 0 0 0.1 0" id="feColorMatrix25"/><feBlend mode="normal" in2="BackgroundImageFix" result="effect1_dropShadow" id="feBlend27"/><feBlend mode="normal" in="SourceGraphic" in2="effect1_dropShadow" result="shape" id="feBlend29"/></filter><filter id="filter1_d" x="6" y="6" width="94.439" height="94.439" filterUnits="userSpaceOnUse" color-interpolation-filters="sRGB"><feFlood flood-opacity="0" result="BackgroundImageFix" id="feFlood32"/><feColorMatrix in="SourceAlpha" type="matrix" values="0 0 0 0 0 0 0 0 0 0 0 0 0 0 0 0 0 0 127 0" id="feColorMatrix34"/><feOffset dy="1" id="feOffset36"/><feGaussianBlur stdDeviation=".5" id="feGaussianBlur38"/><feColorMatrix type="matrix" values="0 0 0 0 0 0 0 0 0 0 0 0 0 0 0 0 0 0 0.1 0" id="feColorMatrix40"/><feBlend mode="normal" in2="BackgroundImageFix" result="effect1_dropShadow" id="feBlend42"/><feBlend mode="normal" in="SourceGraphic" in2="effect1_dropShadow" result="shape" id="feBlend44"/></filter><filter id="filter2_d" x="15.874" y="16.637" width="75.067" height="82" filterUnits="userSpaceOnUse" color-interpolation-filters="sRGB"><feFlood flood-opacity="0" result="BackgroundImageFix" id="feFlood47"/><feColorMatrix in="SourceAlpha" type="matrix" values="0 0 0 0 0 0 0 0 0 0 0 0 0 0 0 0 0 0 127 0" id="feColorMatrix49"/><feOffset dy="1" id="feOffset51"/><feGaussianBlur stdDeviation=".5" id="feGaussianBlur53"/><feColorMatrix type="matrix" values="0 0 0 0 0 0 0 0 0 0 0 0 0 0 0 0 0 0 0.05 0" id="feColorMatrix55"/><feBlend mode="normal" in2="BackgroundImageFix" result="effect1_dropShadow" id="feBlend57"/><feBlend mode="normal" in="SourceGraphic" in2="effect1_dropShadow" result="shape" id="feBlend59"/></filter><clipPath id="clip0"><path fill="#fff" transform="translate(7 6)" id="rect62" d="M0 0h92.439v92.439H0z"/></clipPath></defs></svg>