<svg width="85" height="80" fill="none" xmlns="http://www.w3.org/2000/svg"><g filter="url(#filter0_d)"><g filter="url(#filter1_d)"><path fill-rule="evenodd" clip-rule="evenodd" d="M20.94 0c-5.522 0-10 4.477-10 10v4.227L1 24.185l9.94 9.958V71.56c0 5.523 4.478 10 10 10h97.498c5.522 0 10-4.477 10-10V10c0-5.523-4.478-10-10-10H20.941z" fill="#F5F5F5"/></g><path d="M65.456 65.432h12.091C77.547 56.746 91 55.27 91 42.16 91 32.49 82.672 27 70.661 27 59.851 27 52.324 31.261 48 37.98l9.689 5.819c2.562-3.77 6.486-6.064 11.61-6.064 5.206 0 8.649 2.54 8.649 6.555 0 7.13-12.492 9.67-12.492 21.142zM71.542 86c4.484 0 7.687-3.36 7.687-7.457 0-4.18-3.203-7.293-7.687-7.293s-7.687 3.114-7.687 7.293c0 4.097 3.203 7.457 7.687 7.457z" fill="#F14D34"/></g><defs><filter id="filter0_d" x="0" y="0" width="129.438" height="88" filterUnits="userSpaceOnUse" color-interpolation-filters="sRGB"><feFlood flood-opacity="0" result="BackgroundImageFix"/><feColorMatrix in="SourceAlpha" values="0 0 0 0 0 0 0 0 0 0 0 0 0 0 0 0 0 0 127 0"/><feOffset dy="1"/><feGaussianBlur stdDeviation=".5"/><feColorMatrix values="0 0 0 0 0 0 0 0 0 0 0 0 0 0 0 0 0 0 0.1 0"/><feBlend in2="BackgroundImageFix" result="effect1_dropShadow"/><feBlend in="SourceGraphic" in2="effect1_dropShadow" result="shape"/></filter><filter id="filter1_d" x="0" y="0" width="129.438" height="83.56" filterUnits="userSpaceOnUse" color-interpolation-filters="sRGB"><feFlood flood-opacity="0" result="BackgroundImageFix"/><feColorMatrix in="SourceAlpha" values="0 0 0 0 0 0 0 0 0 0 0 0 0 0 0 0 0 0 127 0"/><feOffset dy="1"/><feGaussianBlur stdDeviation=".5"/><feColorMatrix values="0 0 0 0 0 0 0 0 0 0 0 0 0 0 0 0 0 0 0.1 0"/><feBlend in2="BackgroundImageFix" result="effect1_dropShadow"/><feBlend in="SourceGraphic" in2="effect1_dropShadow" result="shape"/></filter></defs></svg>