<svg width="85" height="84" fill="none" xmlns="http://www.w3.org/2000/svg"><g filter="url(#filter0_d)"><circle cx="53" cy="52" fill="#F5F5F5" r="52"/></g><g clip-path="url(#clip0)" filter="url(#filter1_d)"><g filter="url(#filter2_d)" fill="#F14D34" stroke="#F14D34" stroke-width="1.7"><path d="M83.941 44.07h1.527a4.526 4.526 0 014.525 4.525v7.108c0 .453-.226.867-.603 1.112-.528.34-.83.924-.83 1.547v6.843a2.17 2.17 0 001.226 1.961c.886.434 5.486 2.753 9.747 6.26.358.301.566.735.566 1.225v4.864c0 1.037.829 1.867 1.866 1.867a1.86 1.86 0 001.867-1.867v-4.864a5.27 5.27 0 00-1.942-4.11c-3.752-3.092-7.768-5.317-9.615-6.278v-5.034a5.074 5.074 0 001.432-3.526v-7.108c0-4.562-3.714-8.258-8.257-8.258h-1.528c-4.562 0-8.257 3.715-8.257 8.258v7.108c0 1.339.527 2.583 1.432 3.526v2.432c0 1.037.83 1.866 1.867 1.866s1.866-.83 1.866-1.866v-3.28a1.87 1.87 0 00-.83-1.547 1.321 1.321 0 01-.602-1.112v-7.108a4.546 4.546 0 014.543-4.544zM13.335 70.56a5.328 5.328 0 00-1.942 4.11v4.864c0 1.037.83 1.866 1.866 1.866a1.859 1.859 0 001.867-1.866V74.67c0-.472.207-.924.565-1.226 4.261-3.488 8.861-5.826 9.748-6.26a2.17 2.17 0 001.225-1.96V58.38a1.87 1.87 0 00-.83-1.546 1.321 1.321 0 01-.603-1.112v-7.108a4.526 4.526 0 014.525-4.525h1.527a4.526 4.526 0 014.525 4.525v7.108c0 .452-.226.867-.603 1.112-.528.34-.83.924-.83 1.546v3.432c0 1.037.83 1.866 1.867 1.866s1.866-.83 1.866-1.866v-2.564a5.074 5.074 0 001.433-3.526v-7.108c0-4.563-3.714-8.258-8.258-8.258h-1.527c-4.563 0-8.258 3.714-8.258 8.258v7.108c0 1.338.528 2.583 1.433 3.526v5.033c-1.829.962-5.845 3.206-9.596 6.279z"/><path d="M80.058 81.4a1.858 1.858 0 001.866-1.866v-6.297c0-1.904-.83-3.676-2.3-4.883-5.034-4.148-10.426-7.09-12.632-8.22v-7.09a6.016 6.016 0 001.848-4.336v-9.2c0-5.6-4.563-10.143-10.144-10.143h-1.98c-5.599 0-10.142 4.562-10.142 10.143v9.2c0 1.66.678 3.206 1.847 4.337v7.089c-2.206 1.13-7.598 4.072-12.632 8.22a6.272 6.272 0 00-2.3 4.883v6.297c0 1.037.83 1.867 1.867 1.867s1.866-.83 1.866-1.867v-6.297c0-.773.34-1.508.943-1.998 5.562-4.563 11.576-7.599 12.726-8.164a2.247 2.247 0 001.282-2.036v-8.861c0-.623-.32-1.207-.83-1.546a2.279 2.279 0 01-1.018-1.905v-9.2c0-3.545 2.885-6.41 6.41-6.41h1.98a6.416 6.416 0 016.41 6.41v9.2c0 .754-.377 1.47-1.018 1.905-.527.339-.83.923-.83 1.546v8.86c0 .868.491 1.66 1.283 2.056 1.15.565 7.164 3.6 12.726 8.163a2.57 2.57 0 01.943 1.999v6.297c-.038 1.018.792 1.848 1.829 1.848z"/></g></g><defs><filter id="filter0_d" x="0" y="0" width="106" height="106" filterUnits="userSpaceOnUse" color-interpolation-filters="sRGB"><feFlood flood-opacity="0" result="BackgroundImageFix"/><feColorMatrix in="SourceAlpha" values="0 0 0 0 0 0 0 0 0 0 0 0 0 0 0 0 0 0 127 0"/><feOffset dy="1"/><feGaussianBlur stdDeviation=".5"/><feColorMatrix values="0 0 0 0 0 0 0 0 0 0 0 0 0 0 0 0 0 0 0.1 0"/><feBlend in2="BackgroundImageFix" result="effect1_dropShadow"/><feBlend in="SourceGraphic" in2="effect1_dropShadow" result="shape"/></filter><filter id="filter1_d" x="5.393" y="6.163" width="94.439" height="94.439" filterUnits="userSpaceOnUse" color-interpolation-filters="sRGB"><feFlood flood-opacity="0" result="BackgroundImageFix"/><feColorMatrix in="SourceAlpha" values="0 0 0 0 0 0 0 0 0 0 0 0 0 0 0 0 0 0 127 0"/><feOffset dy="1"/><feGaussianBlur stdDeviation=".5"/><feColorMatrix values="0 0 0 0 0 0 0 0 0 0 0 0 0 0 0 0 0 0 0.1 0"/><feBlend in2="BackgroundImageFix" result="effect1_dropShadow"/><feBlend in="SourceGraphic" in2="effect1_dropShadow" result="shape"/></filter><filter id="filter2_d" x="9.543" y="28.515" width="96.139" height="55.736" filterUnits="userSpaceOnUse" color-interpolation-filters="sRGB"><feFlood flood-opacity="0" result="BackgroundImageFix"/><feColorMatrix in="SourceAlpha" values="0 0 0 0 0 0 0 0 0 0 0 0 0 0 0 0 0 0 127 0"/><feOffset dy="1"/><feGaussianBlur stdDeviation=".5"/><feColorMatrix values="0 0 0 0 0 0 0 0 0 0 0 0 0 0 0 0 0 0 0.05 0"/><feBlend in2="BackgroundImageFix" result="effect1_dropShadow"/><feBlend in="SourceGraphic" in2="effect1_dropShadow" result="shape"/></filter><clipPath id="clip0"><path fill="#fff" transform="translate(6.393 6.163)" d="M0 0h92.439v92.439H0z"/></clipPath></defs></svg>